<?xml version="1.0" encoding="utf-8"?>
<!-- Generator: Adobe Illustrator 16.0.0, SVG Export Plug-In . SVG Version: 6.00 Build 0)  -->
<!DOCTYPE svg PUBLIC "-//W3C//DTD SVG 1.1//EN" "http://www.w3.org/Graphics/SVG/1.1/DTD/svg11.dtd">
<svg version="1.1" id="Layer_1" xmlns="http://www.w3.org/2000/svg" xmlns:xlink="http://www.w3.org/1999/xlink" x="0px" y="0px"
	 width="50px" height="50px" viewBox="0 0 50 50" enable-background="new 0 0 50 50" xml:space="preserve">
<g>
	<linearGradient id="SVGID_1_" gradientUnits="userSpaceOnUse" x1="24.9995" y1="12.3887" x2="24.9995" y2="45.9847">
		<stop  offset="0" style="stop-color:#2FB6F8"/>
		<stop  offset="0.1758" style="stop-color:#4798F9"/>
		<stop  offset="0.3724" style="stop-color:#5C7DF9"/>
		<stop  offset="0.5736" style="stop-color:#6B6AFA"/>
		<stop  offset="0.7801" style="stop-color:#745FFA"/>
		<stop  offset="1" style="stop-color:#775BFA"/>
	</linearGradient>
	<path fill="url(#SVGID_1_)" d="M25,2.734l-6.45,6.45h1.398L25,4.131l5.052,5.052h1.398L25,2.734z"/>
	<linearGradient id="SVGID_2_" gradientUnits="userSpaceOnUse" x1="24.9995" y1="12.3877" x2="24.9995" y2="45.9784">
		<stop  offset="0" style="stop-color:#2FB6F8"/>
		<stop  offset="0.1758" style="stop-color:#4798F9"/>
		<stop  offset="0.3724" style="stop-color:#5C7DF9"/>
		<stop  offset="0.5736" style="stop-color:#6B6AFA"/>
		<stop  offset="0.7801" style="stop-color:#745FFA"/>
		<stop  offset="1" style="stop-color:#775BFA"/>
	</linearGradient>
	<polygon fill="url(#SVGID_2_)" points="27.107,8.36 25,6.252 22.893,8.36 24.291,8.36 25,7.649 25.708,8.36 	"/>
</g>
<linearGradient id="SVGID_3_" gradientUnits="userSpaceOnUse" x1="24.9995" y1="14.5938" x2="24.9995" y2="59.7107">
	<stop  offset="0" style="stop-color:#2FB6F8"/>
	<stop  offset="0.1758" style="stop-color:#4798F9"/>
	<stop  offset="0.3724" style="stop-color:#5C7DF9"/>
	<stop  offset="0.5736" style="stop-color:#6B6AFA"/>
	<stop  offset="0.7801" style="stop-color:#745FFA"/>
	<stop  offset="1" style="stop-color:#775BFA"/>
</linearGradient>
<path fill="url(#SVGID_3_)" d="M32.163,19.047c-1.834-1.834-4.36-2.966-7.158-2.966c-5.596,0-10.134,4.527-10.134,10.124v9.002
	c0,2.798,1.132,5.323,2.966,7.157s4.37,2.966,7.168,2.966c5.586,0,10.124-4.538,10.124-10.123v-9.002
	C35.129,23.407,33.997,20.881,32.163,19.047z M26.441,25.366v1.625c0,1.006-0.724,1.834-1.614,1.834
	c-0.892,0-1.614-0.828-1.614-1.834v-1.625c0-1.016,0.723-1.834,1.614-1.834C25.718,23.532,26.441,24.35,26.441,25.366z
	 M33.577,34.704c0,4.988-3.835,9.032-8.572,9.032c-2.368,0-4.517-1.016-6.067-2.65c-1.552-1.636-2.516-3.888-2.516-6.382v-8.018
	c0-4.569,3.238-8.352,7.42-8.949v4.171c-1.226,0.409-2.117,1.572-2.117,2.945v2.756c0,0.859,0.346,1.624,0.912,2.189
	c0.556,0.556,1.331,0.901,2.19,0.901c1.708,0,3.102-1.383,3.102-3.091v-2.756c0-0.859-0.346-1.635-0.911-2.19
	c-0.336-0.336-0.744-0.598-1.206-0.755v-4.213c2.044,0.199,3.889,1.153,5.262,2.599c1.551,1.635,2.504,3.898,2.504,6.392V34.704z"/>
</svg>
