<?xml version="1.0" encoding="utf-8"?>
<!-- Generator: Adobe Illustrator 16.0.0, SVG Export Plug-In . SVG Version: 6.00 Build 0)  -->
<!DOCTYPE svg PUBLIC "-//W3C//DTD SVG 1.1//EN" "http://www.w3.org/Graphics/SVG/1.1/DTD/svg11.dtd">
<svg version="1.1" id="Layer_1" xmlns="http://www.w3.org/2000/svg" xmlns:xlink="http://www.w3.org/1999/xlink" x="0px" y="0px"
	 width="150px" height="150px" viewBox="0 0 150 150" enable-background="new 0 0 150 150" xml:space="preserve">
<linearGradient id="SVGID_1_" gradientUnits="userSpaceOnUse" x1="105.376" y1="30.0732" x2="147.4475" y2="30.0732">
	<stop  offset="0" style="stop-color:#2684FF"/>
	<stop  offset="1" style="stop-color:#0052CC"/>
</linearGradient>
<path fill="url(#SVGID_1_)" d="M91.236,9.513c-2.646-5.017-7.911-8.44-13.98-8.44c-8.725,0-15.797,7.074-15.797,15.798
	c0,8.725,7.072,15.797,15.797,15.797c4.9,0,9.277-2.229,12.174-5.729c8.617,2.146,16.519,6.594,22.96,13.034
	c5.467,5.466,9.497,11.986,11.903,19.102h18.092C136.321,34.222,116.38,14.812,91.236,9.513z M128.851,48.895
	c-0.786,0-1.455-0.513-1.687-1.222c-8.772-16.025-25.036-27.391-44.051-29.346c-0.651,2.63-3.026,4.578-5.857,4.578
	c-3.332,0-6.034-2.702-6.034-6.034c0-3.334,2.702-6.034,6.034-6.034c2.609,0,4.833,1.657,5.675,3.975
	c13.973,1.296,26.935,7.358,36.982,17.403c4.171,4.173,7.652,8.847,10.396,13.885c0.074,0.107,0.137,0.22,0.186,0.341
	c0.005,0.007,0.007,0.014,0.012,0.021l-0.002,0.002c0.078,0.202,0.125,0.422,0.125,0.652
	C130.63,48.099,129.834,48.895,128.851,48.895z"/>
<linearGradient id="SVGID_2_" gradientUnits="userSpaceOnUse" x1="60.4678" y1="120.7021" x2="3.0327" y2="120.7022">
	<stop  offset="0" style="stop-color:#2684FF"/>
	<stop  offset="1" style="stop-color:#0052CC"/>
</linearGradient>
<path fill="url(#SVGID_2_)" d="M77.256,117.503c-4.798,0-9.096,2.144-11.993,5.521c-8.596-2.149-16.479-6.592-22.907-13.02
	c-5.105-5.104-8.957-11.128-11.407-17.698c-3.384,2.333-7.488,3.698-11.911,3.698c-1.883,0-3.709-0.248-5.446-0.714
	c7.19,22.609,26.075,40.005,49.543,45.092c2.598,5.168,7.944,8.717,14.12,8.717c8.727,0,15.799-7.074,15.799-15.797
	C93.055,124.575,85.982,117.503,77.256,117.503z M77.256,139.336c-2.771,0-5.104-1.869-5.811-4.416
	c-13.919-1.322-26.831-7.381-36.845-17.391c-2.24-2.241-4.281-4.628-6.117-7.14c-0.322-0.322-0.523-0.768-0.523-1.259
	c0-0.984,0.798-1.779,1.779-1.779c0.346,0,0.668,0.1,0.939,0.27c0.274,0.169,0.497,0.412,0.643,0.699
	c9.284,12.715,23.713,21.448,40.2,23.106c0.786-2.414,3.057-4.161,5.735-4.161c3.333,0,6.037,2.703,6.037,6.036
	C83.293,136.634,80.589,139.336,77.256,139.336z"/>
<linearGradient id="SVGID_3_" gradientUnits="userSpaceOnUse" x1="31.543" y1="56.8408" x2="31.543" y2="6.4654">
	<stop  offset="0" style="stop-color:#2684FF"/>
	<stop  offset="1" style="stop-color:#0052CC"/>
</linearGradient>
<path fill="url(#SVGID_3_)" d="M59.844,28.644c-2.275-3.356-3.604-7.409-3.604-11.773c0-1.954,0.267-3.847,0.768-5.642
	C34.434,18.434,17.065,37.297,11.981,60.74C6.8,63.333,3.242,68.684,3.242,74.873c0,8.725,7.072,15.798,15.797,15.798
	s15.797-7.073,15.797-15.798c0-4.792-2.136-9.082-5.504-11.979c2.15-8.603,6.594-16.491,13.024-22.922
	C47.408,34.922,53.357,31.097,59.844,28.644z M20.696,69.185c2.528,0.721,4.379,3.045,4.379,5.803c0,3.333-2.703,6.034-6.036,6.034
	s-6.035-2.701-6.035-6.034c0-2.688,1.76-4.966,4.189-5.746c1.288-13.988,7.353-26.97,17.407-37.028
	c2.176-2.175,4.488-4.163,6.919-5.958c0.294-0.215,0.656-0.343,1.048-0.343c0.983,0,1.779,0.795,1.779,1.776
	c0,0.718-0.424,1.334-1.035,1.614C30.853,38.608,22.321,52.895,20.696,69.185z"/>
<linearGradient id="SVGID_4_" gradientUnits="userSpaceOnUse" x1="102.874" y1="98.8369" x2="102.874" y2="147.6008">
	<stop  offset="0" style="stop-color:#2684FF"/>
	<stop  offset="1" style="stop-color:#0052CC"/>
</linearGradient>
<path fill="url(#SVGID_4_)" d="M143.711,66.174H90.442c-2.827-4.276-7.677-7.1-13.187-7.1c-8.725,0-15.797,7.073-15.797,15.799
	c0,8.725,7.072,15.798,15.797,15.798c5.51,0,10.359-2.823,13.187-7.102h35.713c-1.73,9.963-6.469,19.137-13.766,26.435
	c-5.126,5.127-11.181,8.991-17.781,11.438c2.313,3.375,3.666,7.46,3.666,11.86c0,1.906-0.254,3.752-0.732,5.509
	c27.099-8.558,46.747-33.897,46.747-63.822C144.289,72,144.094,69.058,143.711,66.174z M113.904,76.785
	c-0.086,0-0.167-0.007-0.249-0.018H83.111c-0.749,2.523-3.087,4.367-5.855,4.367c-3.374,0-6.108-2.734-6.108-6.107
	c0-3.375,2.734-6.11,6.108-6.11c2.769,0,5.106,1.844,5.855,4.37h30.544c0.082-0.011,0.163-0.021,0.249-0.021
	c0.972,0,1.758,0.789,1.758,1.761C115.662,75.997,114.876,76.785,113.904,76.785z"/>
</svg>
