<?xml version="1.0" encoding="utf-8"?>
<!-- Generator: Adobe Illustrator 16.0.0, SVG Export Plug-In . SVG Version: 6.00 Build 0)  -->
<!DOCTYPE svg PUBLIC "-//W3C//DTD SVG 1.1//EN" "http://www.w3.org/Graphics/SVG/1.1/DTD/svg11.dtd">
<svg version="1.1" id="Capa_1" xmlns="http://www.w3.org/2000/svg" xmlns:xlink="http://www.w3.org/1999/xlink" x="0px" y="0px"
	 width="512px" height="512px" viewBox="0 0 512 512" enable-background="new 0 0 512 512" xml:space="preserve">
<g>
	<g id="instagram">
		<g>
			<path fill="#FFFFFF" d="M429.495,70.998h-46.981c-15.349,0-27.844,12.496-27.844,27.843v46.97
				c0,15.348,12.496,27.843,27.844,27.843h46.981c15.348,0,27.843-12.496,27.843-27.843v-46.97
				C457.338,83.493,444.843,70.998,429.495,70.998z M432.957,145.811c0,1.915-1.549,3.462-3.462,3.462h-46.981
				c-1.914,0-3.463-1.548-3.463-3.462v-46.97c0-1.914,1.561-3.461,3.463-3.461h46.981c1.9,0,3.462,1.548,3.462,3.461V145.811z
				 M402.285,6.096H109.714C49.225,6.096,0,55.32,0,115.81v280.38c0,60.49,49.225,109.714,109.714,109.714h292.571
				C462.774,505.904,512,456.681,512,396.19V115.81C512,55.32,462.774,6.096,402.285,6.096z M487.619,396.19
				c0,47.056-38.279,85.333-85.334,85.333H109.714c-47.056,0-85.333-38.277-85.333-85.333V213.333h122.893
				c-23.259,25.917-37.559,60.038-37.559,97.524c0,80.664,65.622,146.285,146.286,146.285s146.285-65.621,146.285-146.285
				c0-37.486-14.3-71.607-37.559-97.524h122.893V396.19z M256,188.952c67.219,0,121.904,54.687,121.904,121.905
				c0,67.219-54.686,121.904-121.904,121.904c-67.218,0-121.904-54.686-121.904-121.904
				C134.096,243.639,188.782,188.952,256,188.952z M487.619,188.952H336.688c-23.149-15.373-50.871-24.381-80.688-24.381
				c-29.806,0-57.539,9.008-80.688,24.381H24.381V115.81c0-47.056,38.278-85.333,85.333-85.333h292.571
				c47.055,0,85.334,38.278,85.334,85.333V188.952z M256,396.19c47.056,0,85.333-38.278,85.333-85.333S303.056,225.523,256,225.523
				s-85.333,38.279-85.333,85.334S208.944,396.19,256,396.19z M256,249.905c33.609,0,60.952,27.345,60.952,60.952
				c0,33.609-27.343,60.951-60.952,60.951c-33.609,0-60.952-27.343-60.952-60.951S222.391,249.905,256,249.905z"/>
		</g>
	</g>
</g>
</svg>
