<?xml version="1.0" encoding="utf-8"?>
<!-- Generator: Adobe Illustrator 16.0.0, SVG Export Plug-In . SVG Version: 6.00 Build 0)  -->
<!DOCTYPE svg PUBLIC "-//W3C//DTD SVG 1.1//EN" "http://www.w3.org/Graphics/SVG/1.1/DTD/svg11.dtd">
<svg version="1.1" id="Capa_1" xmlns="http://www.w3.org/2000/svg" xmlns:xlink="http://www.w3.org/1999/xlink" x="0px" y="0px"
	 width="512px" height="512px" viewBox="0 0 512 512" enable-background="new 0 0 512 512" xml:space="preserve">
<path fill="#FFFFFF" d="M47.062,450.117h417.875c25.951,0,47.063-21.113,47.063-47.066V108.947
	c0-25.953-21.111-47.064-47.063-47.064H47.062C21.112,61.883,0,82.997,0,108.947v294.104C0,429.004,21.112,450.117,47.062,450.117z
	 M30.65,108.947c0-9.064,7.358-16.414,16.412-16.414h417.875c9.059,0,16.412,7.35,16.412,16.414v294.104
	c0,9.066-7.355,16.416-16.412,16.416H47.062c-9.056,0-16.412-7.35-16.412-16.416V108.947z M91.415,397.792h-30.65V115.508
	l191.408,124.266c2.252,1.461,5.4,1.463,7.658-0.004l191.406-124.262v282.283h-30.65V171.949L276.518,265.48
	c-6.114,3.967-13.209,6.061-20.518,6.061c-7.309,0-14.403-2.094-20.513-6.058L91.415,171.949V397.792z"/>
</svg>
