<?xml version="1.0" encoding="utf-8"?>
<!-- Generator: Adobe Illustrator 16.0.0, SVG Export Plug-In . SVG Version: 6.00 Build 0)  -->
<!DOCTYPE svg PUBLIC "-//W3C//DTD SVG 1.1//EN" "http://www.w3.org/Graphics/SVG/1.1/DTD/svg11.dtd">
<svg version="1.1" id="Capa_1" xmlns="http://www.w3.org/2000/svg" xmlns:xlink="http://www.w3.org/1999/xlink" x="0px" y="0px"
	 width="512px" height="512px" viewBox="0 0 512 512" enable-background="new 0 0 512 512" xml:space="preserve">
<g>
	<path fill="#FFFFFF" d="M412.174,484.985c-3.999,0-7.972-1.184-11.379-3.493l-128.736-87.326l-69.048,49.684
		c-5.416,3.894-12.396,4.875-18.684,2.627c-6.28-2.254-11.049-7.456-12.751-13.906l-34.67-131.388L13.027,253.815
		C5.229,250.832,0.057,243.371,0,235.021c-0.057-8.35,5.013-15.881,12.773-18.969L483.805,28.625
		c2.138-0.908,4.399-1.433,6.68-1.573c0.816-0.049,1.636-0.049,2.448-0.003c4.724,0.281,9.363,2.205,12.984,5.756
		c0.376,0.368,0.732,0.743,1.07,1.135c2.999,3.426,4.647,7.604,4.959,11.86c0.075,1.07,0.07,2.153-0.024,3.237
		c-0.065,0.772-0.176,1.543-0.333,2.308l-79.508,417.167c-1.277,6.702-5.839,12.312-12.141,14.925
		C417.44,484.475,414.801,484.985,412.174,484.985z M283.361,352.854l114.675,77.784l61.865-324.603l-223.44,215.005l46.359,31.449
		C283.008,352.605,283.186,352.73,283.361,352.854z M187.9,335.558l15.354,58.179l33.081-23.804l-43.317-29.384
		C191.004,339.188,189.281,337.49,187.9,335.558z M76.03,234.505l85.061,32.521c6.094,2.329,10.693,7.452,12.357,13.76
		l10.787,40.882c0.495-4.715,2.632-9.152,6.104-12.494l212.906-204.868L76.03,234.505z"/>
</g>
</svg>
