<?xml version="1.0" encoding="utf-8"?>
<!-- Generator: Adobe Illustrator 16.0.0, SVG Export Plug-In . SVG Version: 6.00 Build 0)  -->
<!DOCTYPE svg PUBLIC "-//W3C//DTD SVG 1.1//EN" "http://www.w3.org/Graphics/SVG/1.1/DTD/svg11.dtd">
<svg version="1.1" id="Capa_1" xmlns="http://www.w3.org/2000/svg" xmlns:xlink="http://www.w3.org/1999/xlink" x="0px" y="0px"
	 width="512px" height="512px" viewBox="0 0 512 512" enable-background="new 0 0 512 512" xml:space="preserve">
<g>
	<g>
		<path fill="#FFFFFF" d="M365.778,205.103c0-2.583-0.047-5.144-0.163-7.68c11.055-8.239,20.643-18.548,28.229-30.348
			c-10.146,4.562-21.038,7.61-32.489,8.89c11.684-7.191,20.644-18.688,24.879-32.488c-10.938,6.632-23.04,11.38-35.91,13.847
			c-10.31-11.73-25.018-19.2-41.286-19.479c-31.231-0.512-56.553,25.879-56.553,58.95c0,4.701,0.489,9.263,1.466,13.661
			c-47.034-3.025-88.715-27.508-116.596-64.418c-4.864,8.844-7.657,19.177-7.657,30.255c0,20.946,9.984,39.564,25.158,50.548
			c-9.286-0.418-17.99-3.234-25.623-7.843c0,0.256,0,0.512,0,0.768c0,29.278,19.502,53.807,45.381,59.532
			c-4.748,1.35-9.751,2.048-14.895,2.025c-3.653-0.023-7.191-0.419-10.636-1.165c7.191,23.995,28.091,41.52,52.829,42.102
			c-19.363,16.057-43.753,25.646-70.237,25.576c-4.562,0-9.076-0.303-13.499-0.861c25.042,17.176,54.761,27.182,86.714,27.182
			C308.898,374.18,365.778,283.648,365.778,205.103z"/>
		<path fill="#FFFFFF" d="M512,256C512,114.618,397.382,0,256,0C114.618,0,0,114.618,0,256c0,141.382,114.618,256,256,256
			C397.382,512,512,397.382,512,256z M23.272,256C23.272,127.465,127.464,23.272,256,23.272
			c128.535,0,232.728,104.192,232.728,232.728S384.535,488.728,256,488.728C127.464,488.728,23.272,384.535,23.272,256z"/>
	</g>
</g>
</svg>
