<?xml version="1.0" encoding="utf-8"?>
<!-- Generator: Adobe Illustrator 16.0.0, SVG Export Plug-In . SVG Version: 6.00 Build 0)  -->
<!DOCTYPE svg PUBLIC "-//W3C//DTD SVG 1.1//EN" "http://www.w3.org/Graphics/SVG/1.1/DTD/svg11.dtd">
<svg version="1.1" id="Layer_1" xmlns="http://www.w3.org/2000/svg" xmlns:xlink="http://www.w3.org/1999/xlink" x="0px" y="0px"
	 width="86px" height="36px" viewBox="0 0 86 36" enable-background="new 0 0 86 36" xml:space="preserve">
<rect x="-147" y="-103" display="none" fill="#27150D" width="500" height="500"/>
<g>
	<path fill="#FFFFFF" d="M16.743,15.236v2.648h3.296v-4.793h2.589l3.209,4.793h3.851l-3.659-5.349
		c1.084-0.402,1.962-1.077,2.528-2.021c0.039,4.223,3.341,7.628,7.935,7.628c4.622,0,7.982-3.488,7.982-7.747v-0.042
		c0-0.469-0.047-0.926-0.125-1.371l3.055,9.01h2.867l3.382-9.801l3.38,9.801h2.868L64.35,4.87v13.015h3.253V8.363l7.253,9.522h2.805
		V2.906h-3.253v9.222l-7.019-9.222h-2.373H64.35h-2.78l-3.104,10.143L55.106,2.863h-2.824l-3.359,10.186L45.82,2.906h-3.53
		l1.292,3.811c-1.283-2.422-3.852-4.068-7.046-4.068c-3.431,0-6.163,1.923-7.345,4.655c-0.244-2.746-2.289-4.398-5.601-4.398h-6.848
		v9.3c-0.42-1.039-1.302-1.686-2.523-2.153c1.069-0.599,1.968-1.541,1.968-3.231V6.779c0-2.354-1.883-3.873-4.943-3.873H4.29v14.979
		h7.126C14.123,17.885,16.066,16.992,16.743,15.236z M31.999,10.353c0-2.568,1.841-4.665,4.494-4.665s4.536,2.14,4.536,4.708v0.043
		c0,2.567-1.84,4.665-4.493,4.665s-4.537-2.14-4.537-4.708V10.353z M20.039,5.881h3.274c1.604,0,2.588,0.727,2.588,2.139v0.043
		c0,1.263-0.92,2.119-2.524,2.119h-3.338V5.881z M7.5,5.795h3.252c1.391,0,2.161,0.556,2.161,1.54v0.042
		c0,1.113-0.92,1.584-2.375,1.584H7.5V5.795z M7.5,11.701h3.809c1.691,0,2.44,0.621,2.44,1.626v0.042
		c0,1.113-0.877,1.626-2.333,1.626H7.5V11.701z"/>
	<path fill="#FFFFFF" d="M73.316,18.771H67.54h-0.064h-3.231v8.58c0,2.376-1.219,3.596-3.23,3.596c-2.013,0-3.231-1.263-3.231-3.702
		v-8.474h-3.296v4.956c-1.014-3.033-3.855-5.213-7.53-5.213c-3.35,0-6.029,1.837-7.254,4.466c-0.321-2.633-2.349-4.209-5.584-4.209
		h-6.847v2.579c-0.889-1.586-2.643-2.579-5.071-2.579h-6.12v7.959l-1.946-1.068c-0.471,0.919-0.963,1.796-1.456,2.567l-1.99-1.989
		c1.861-0.729,3.145-1.905,3.145-3.938c0-2.141-1.668-3.789-4.214-3.789c-2.889,0-4.537,1.883-4.537,3.959
		c0,1.049,0.321,1.968,1.048,3.017c-1.883,0.857-2.91,2.204-2.91,4.131c0,2.674,2.161,4.344,5.029,4.344
		c1.733,0,3.167-0.664,4.386-1.67l1.734,1.755l1.71-1.195v0.896h3.296v-4.493h2.503c2.376,0,4.398-0.917,5.392-2.671v7.164h3.295
		v-4.794h2.589l3.209,4.794h3.852L36.558,28.4c1.021-0.38,1.86-1.001,2.428-1.86c0.123,4.148,3.393,7.466,7.928,7.466
		c3.78,0,6.716-2.338,7.656-5.52c0.409,3.631,2.752,5.497,6.4,5.497c3.744,0,6.181-1.955,6.505-5.878v5.644h5.841
		c4.707,0,7.96-3.274,7.96-7.489v-0.043C81.276,22.002,78.023,18.771,73.316,18.771z M9.555,21.08c0.833,0,1.412,0.516,1.412,1.413
		c0,0.963-0.685,1.519-1.99,2.012C8.356,23.799,8.1,23.306,8.1,22.622C8.1,21.701,8.677,21.08,9.555,21.08z M8.634,31.267
		c-1.22,0-2.097-0.705-2.097-1.777c0-0.747,0.407-1.476,1.391-1.988l2.867,2.911C10.111,30.946,9.383,31.267,8.634,31.267z
		 M14.583,30.155c0.557-0.748,1.041-1.552,1.497-2.348v3.844L14.583,30.155z M24.597,24.057c0,1.282-0.963,2.268-2.611,2.268h-2.61
		v-4.578h2.546c1.647,0,2.675,0.79,2.675,2.266V24.057z M36.429,23.926c0,1.265-0.92,2.119-2.525,2.119h-3.338v-4.299h3.274
		c1.604,0,2.589,0.727,2.589,2.139V23.926z M51.448,26.302c0,2.567-1.839,4.666-4.492,4.666s-4.537-2.141-4.537-4.708v-0.043
		c0-2.567,1.841-4.665,4.495-4.665c2.652,0,4.534,2.141,4.534,4.708V26.302z M77.831,26.302c0,2.653-1.818,4.474-4.515,4.474H70.77
		v-9.029h2.547c2.696,0,4.515,1.861,4.515,4.514V26.302z"/>
</g>
</svg>
