<?xml version="1.0" standalone="no"?>
<!DOCTYPE svg PUBLIC "-//W3C//DTD SVG 1.1//EN" "http://www.w3.org/Graphics/SVG/1.1/DTD/svg11.dtd" >
<svg>
<metadata>
Created by FontForge 20090622 at Fri Sep 22 03:06:34 2017
 By deploy user
</metadata>
<defs>
<font id="BerlingEF-Bold" horiz-adv-x="500" >
  <font-face 
    font-family="BerlingEF-Bold"
    font-weight="550"
    font-stretch="normal"
    units-per-em="1000"
    panose-1="0 0 0 0 0 0 0 0 0 0"
    ascent="800"
    descent="-200"
    x-height="417"
    cap-height="667"
    bbox="-163 -250 1092 893"
    underline-thickness="20"
    underline-position="-156"
    unicode-range="U+0020-U+FB02"
  />
<missing-glyph horiz-adv-x="280" 
 />
    <glyph glyph-name=".notdef" horiz-adv-x="280" 
 />
    <glyph glyph-name=".null" horiz-adv-x="0" 
 />
    <glyph glyph-name="nonmarkingreturn" horiz-adv-x="250" 
 />
    <glyph glyph-name="space" unicode=" " horiz-adv-x="250" 
 />
    <glyph glyph-name="numbersign" unicode="#" horiz-adv-x="600" 
d="M372 397h-115l-17 -114h115zM559 283l-13 -86h-107l-31 -197h-98l31 197h-114l-31 -197h-97l31 197h-108l13 86h108l17 114h-107l14 86h106l29 184h97l-28 -184h114l29 184h98l-29 -184h105l-13 -86h-105l-17 -114h106z" />
    <glyph glyph-name="dollar" unicode="$" horiz-adv-x="520" 
d="M281 29q46 5 75.5 37t29.5 77q0 64 -83 108l-22 11v-233zM245 659q-45 -4 -74.5 -33.5t-29.5 -70.5q0 -62 97 -113l7 -4v221zM341 638q-18 10 -29 14t-31 6v-241l27 -15q34 -19 58.5 -34.5t42.5 -30t29.5 -29t20.5 -30.5q20 -38 20 -85q0 -41 -14.5 -76.5t-40.5 -61.5
t-62.5 -42t-80.5 -19v-74h-36v73l-4 1q-20 0 -43.5 2t-48.5 5t-50 7.5t-47 9.5l-7 171h32l2 -7q6 -23 13 -39.5t15.5 -30t20 -24.5t27.5 -23l23 -15.5t20 -10t21 -6t26 -4.5v253l-37 19q-42 22 -66.5 39t-41.5 35q-24 26 -37.5 58.5t-13.5 65.5q0 39 14 72.5t40 59t62 41
t80 19.5v74h36v-73q32 -1 68 -4t87 -11l12 -2l10 -171h-32q-11 53 -29.5 83.5t-55.5 50.5z" />
    <glyph glyph-name="percent" unicode="%" horiz-adv-x="770" 
d="M648 193q0 81 -19.5 124t-56.5 43q-71 0 -71 -168q0 -171 73 -171q38 0 56 41.5t18 130.5zM269 481q0 81 -19.5 124t-56.5 43q-70 0 -70 -168q0 -171 72 -171q38 0 56 41.5t18 130.5zM415 192q0 88 43 139t118 51q72 0 114.5 -53.5t42.5 -143.5q0 -88 -42.5 -138
t-116.5 -50t-116.5 52t-42.5 143zM574 667h42l-422 -670h-42zM37 480q0 88 42.5 139t117.5 51q73 0 115.5 -53.5t42.5 -143.5q0 -88 -43 -138t-117 -50q-73 0 -115.5 52t-42.5 143z" />
    <glyph glyph-name="ampersand" unicode="&#x26;" horiz-adv-x="711" 
d="M267 400q19 15 32.5 28.5t21 27.5t11 30t3.5 36q0 56 -30.5 92.5t-78.5 36.5q-33 0 -53.5 -20.5t-20.5 -54.5q0 -62 77 -138zM198 314q-29 -24 -41 -47t-12 -57t13 -64.5t35.5 -53t52 -36t63.5 -13.5q66 0 105 48zM515 368h19.5t22 0.5t29.5 1t41 2.5v-24q-23 0 -39 -4
t-27 -14t-18 -27t-13 -44q-5 -23 -11.5 -46.5t-17.5 -53.5l28 -28q34 -33 60.5 -55.5t44.5 -33.5q13 -8 24 -11t35 -6q2 -1 4.5 -1t5.5 -1v-23q-23 1 -38.5 2t-27.5 1.5t-21.5 0.5h-18.5h-19.5t-21.5 -0.5t-28 -1.5t-38 -2q-21 38 -53 66q-42 -44 -86 -63t-104 -19
q-45 0 -84 12.5t-67 35t-44 52.5t-16 66q0 48 35.5 96t102.5 93l-20.5 22.5l-15 17t-12 15l-12.5 17.5q-43 58 -43 115q0 34 13 63t36.5 50t56 32.5t71.5 11.5q37 0 68 -10.5t54 -28.5t36 -42.5t13 -53.5q0 -41 -31 -81t-100 -91l185 -189q16 42 16 85q0 38 -17 56t-58 20
h-12v24q24 -2 41 -2.5t29.5 -1t22.5 -0.5h20z" />
    <glyph glyph-name="quoteright" unicode="&#x2019;" horiz-adv-x="293" 
d="M254 709l3 -20.5t1 -17.5q0 -46 -22.5 -94t-61.5 -87q-26 -26 -58 -51t-64 -45l-16 19l8 7q87 78 87 168q0 17 -3 31.5t-12 38.5l-3 10z" />
    <glyph glyph-name="parenleft" unicode="(" horiz-adv-x="385" 
d="M361 747v-34q-28 -1 -46.5 -3t-32.5 -6.5t-25 -11.5t-23 -19q-23 -21 -38 -47t-25 -60.5t-14 -80t-4 -106.5q0 -31 1.5 -68t3.5 -75q3 -52 8.5 -90t14.5 -66.5t22.5 -49t31.5 -36.5q25 -23 56.5 -33t74.5 -12v-29q-17 0 -30 0.5t-23.5 1.5t-20 2.5t-20.5 4.5
q-37 8 -68.5 25t-57.5 40q-45 42 -69.5 104t-34.5 153q-6 52 -6 99q0 94 21 168t60.5 125t97 77.5t131.5 26.5h15z" />
    <glyph glyph-name="parenright" unicode=")" horiz-adv-x="385" 
d="M24 -80v34q28 1 46.5 3t32.5 6t25 11.5t23 18.5q22 21 37.5 47t25.5 61t14 80.5t4 106.5q0 30 -1.5 67.5t-3.5 75.5q-3 51 -8.5 89t-14.5 66.5t-22 49t-32 37.5q-25 22 -56 32.5t-74 12.5v29q34 -1 52.5 -2.5t41.5 -6.5q36 -9 68 -25.5t57 -40.5q45 -42 70 -103.5
t35 -152.5q2 -26 3.5 -51t1.5 -49q0 -189 -80.5 -292.5t-229.5 -103.5h-15z" />
    <glyph glyph-name="asterisk" unicode="*" horiz-adv-x="360" 
d="M168 611l-22 125h68l-22 -125l97 82l34 -59l-120 -43l120 -44l-34 -58l-97 82l22 -126h-68l22 126l-97 -82l-34 58l120 44l-120 43l34 59z" />
    <glyph glyph-name="plus" unicode="+" 
d="M33 380h169v164h96v-164h169v-88h-169v-164h-96v164h-169v88z" />
    <glyph glyph-name="comma" unicode="," horiz-adv-x="242" 
d="M192 129l3 -20t1 -18q0 -46 -22.5 -94t-61.5 -87q-26 -26 -58 -50.5t-64 -45.5l-16 19l8 7q87 79 87 168q0 17 -3 31.5t-12 38.5l-3 11z" />
    <glyph glyph-name="hyphen" unicode="-" horiz-adv-x="253" 
d="M257 270l-23 -87h-237l22 87h238z" />
    <glyph glyph-name="period" unicode="." horiz-adv-x="207" 
d="M103 129q29 0 49 -19t20 -48t-20 -49t-47 -20q-29 0 -49 20t-20 49t19 48t48 19z" />
    <glyph glyph-name="slash" unicode="/" horiz-adv-x="358" 
d="M351 687l-287 -707h-57l282 707h62z" />
    <glyph glyph-name="zero" unicode="0" horiz-adv-x="520" 
d="M260 28q101 0 101 307q0 149 -25.5 226t-74.5 77q-27 0 -47 -19t-30 -54q-13 -45 -19 -105t-6 -132q0 -105 18 -198q9 -48 31 -75t52 -27zM480 351v-17q-2 -77 -19 -140t-46.5 -107.5t-69.5 -69t-88 -24.5q-50 0 -90 23t-68 65t-43.5 102t-15.5 134q0 76 17.5 141.5
t48.5 113t73.5 74.5t92.5 27q46 0 84.5 -23.5t66 -66t42.5 -101.5t15 -131z" />
    <glyph glyph-name="one" unicode="1" horiz-adv-x="520" 
d="M119 656q27 0 56 1.5t56.5 3.5t51.5 5.5t41 6.5v-558v-29q1 -36 15 -48.5t55 -13.5h7.5t10.5 -1v-23q-30 1 -52 2t-39 1.5t-30.5 0.5h-26.5h-26t-29.5 -0.5t-38.5 -1.5t-53 -2v23h10q43 0 62 15.5t19 50.5v24v450q0 37 -17.5 50t-70.5 13h-12v30h11z" />
    <glyph glyph-name="two" unicode="2" horiz-adv-x="520" 
d="M475 110v-110h-437q6 14 11 24l10 19.5t11.5 19.5l15.5 24l25 36.5t26.5 35.5l39.5 50l64 79q53 64 75.5 108t22.5 83q0 47 -28.5 74t-76.5 27q-93 0 -176 -65h-8l18 125q55 18 96.5 25.5t85.5 7.5q45 0 82 -12t64 -34t41.5 -52t14.5 -67q0 -55 -32 -107.5t-106 -119.5
l-60 -55l-32 -29q-34 -31 -64 -69q-2 -3 -5.5 -7.5t-7.5 -10.5h330z" />
    <glyph glyph-name="three" unicode="3" horiz-adv-x="520" 
d="M66 649q44 12 90 18t92 6q44 0 80.5 -10t62.5 -28.5t40 -44t14 -56.5q0 -52 -36.5 -91t-105.5 -60q88 -25 128 -68t40 -113q0 -30 -9 -58.5t-25.5 -53t-39.5 -43.5t-50 -30q-31 -13 -63 -18.5t-74 -5.5q-43 0 -79.5 5t-82.5 19l-15 150h22q27 -66 73.5 -102.5
t103.5 -36.5q27 0 50.5 11t41 30t27 45.5t9.5 57.5q0 58 -40 88.5t-116 30.5q-6 0 -11 -0.5t-15 -0.5l45 101q62 10 94.5 40t32.5 77q0 38 -26.5 62t-68.5 24q-48 0 -98.5 -20.5t-96.5 -58.5h-12z" />
    <glyph glyph-name="four" unicode="4" horiz-adv-x="520" 
d="M280 502l-184 -254h184v254zM391 687v-439h90v-81h-90v-167h-111v167h-258v36l353 484h16z" />
    <glyph glyph-name="five" unicode="5" horiz-adv-x="520" 
d="M424 667l-3 -97h-318l-8 -109q26 2 43 2.5t34 0.5q57 0 97 -7t77 -23q59 -26 92 -78t33 -119q0 -53 -19.5 -97.5t-55 -77t-83.5 -51t-105 -18.5q-45 0 -84 10.5t-82 34.5l19 108q33 -49 84.5 -78.5t102.5 -29.5q30 0 56 13t46 34.5t31.5 50.5t11.5 62q0 154 -262 154
q-13 0 -27.5 -0.5t-31.5 -0.5l-14 -1l19 317h347z" />
    <glyph glyph-name="six" unicode="6" horiz-adv-x="520" 
d="M274 28q42 0 67.5 39t25.5 105q0 47 -8.5 86.5t-23.5 68.5t-35.5 45t-44.5 16q-45 0 -69 -36t-24 -102q0 -50 8 -91t23 -70t35.5 -45t45.5 -16zM334 673q28 0 59.5 -5.5t69.5 -17.5l7 -114l-24 -5q-17 51 -52 78.5t-85 27.5q-61 0 -97 -61t-50 -190q55 41 127 41
q42 0 78 -16t62 -44t40.5 -66.5t14.5 -83.5q0 -49 -16 -90t-44 -71t-67 -46.5t-85 -16.5q-53 0 -95.5 21t-72 60t-45 95t-15.5 126q0 85 20.5 155t58.5 119.5t91.5 76.5t119.5 27z" />
    <glyph glyph-name="seven" unicode="7" horiz-adv-x="520" 
d="M476 667v-25l-282 -642h-96l300 560h-346v107h424z" />
    <glyph glyph-name="eight" unicode="8" horiz-adv-x="520" 
d="M312 381q46 23 66.5 50.5t20.5 65.5q0 30 -12 57t-32 46.5t-47.5 31t-58.5 11.5q-26 0 -48 -8t-38.5 -21.5t-26 -32t-9.5 -40.5q0 -18 5 -32t19 -28t39 -30.5t66 -38.5l42 -23zM214 307q-45 -20 -68 -51t-23 -72q0 -32 12.5 -60t34.5 -49t50.5 -33t61.5 -12
q57 0 89.5 24.5t32.5 68.5q0 37 -22 67.5t-69 59.5l-35.5 21l-40.5 23zM396 389q-11 -7 -21.5 -12t-30.5 -13l13 -9q21 -14 37 -26.5t28 -24.5t21 -24.5t17 -27.5q21 -38 21 -79q0 -39 -16.5 -72t-46.5 -57t-71 -37.5t-89 -13.5t-88 13t-69.5 36t-46 54.5t-16.5 69.5
q0 82 84 132q14 8 25.5 13.5t35.5 15.5l-15 9q-21 12 -35.5 22t-25 18.5t-18.5 17t-15 19.5q-26 37 -26 80q0 39 15.5 72t43 57t66 37.5t83.5 13.5q47 0 87 -12t68.5 -34t44.5 -51.5t16 -65.5q0 -38 -19.5 -68.5t-56.5 -52.5z" />
    <glyph glyph-name="nine" unicode="9" horiz-adv-x="520" 
d="M270 277q42 0 65.5 39.5t23.5 108.5q0 48 -8 87.5t-22 67.5t-34.5 43.5t-44.5 15.5q-45 0 -71 -40t-26 -110q0 -46 8.5 -84.5t24.5 -67t37 -44.5t47 -16zM71 136l4 -9q21 -51 52.5 -75t79.5 -24q63 0 98.5 60t49.5 189q-30 -21 -57.5 -30t-61.5 -9q-44 0 -80.5 16
t-63 44.5t-41.5 68t-15 86.5q0 48 16 88.5t44 69.5t67 45.5t85 16.5q53 0 95.5 -20.5t72 -59.5t45.5 -94.5t16 -124.5q0 -84 -21 -154t-59 -120.5t-90.5 -78.5t-115.5 -28q-65 0 -137 26l-7 112z" />
    <glyph glyph-name="colon" unicode=":" horiz-adv-x="230" 
d="M126 407q29 0 49 -19.5t20 -48.5q0 -28 -20 -48t-47 -20q-29 0 -49 20t-20 49q0 28 19 47.5t48 19.5zM126 129q29 0 49 -19t20 -48t-20 -49t-47 -20q-29 0 -49 20t-20 49t19 48t48 19z" />
    <glyph glyph-name="semicolon" unicode=";" horiz-adv-x="242" 
d="M198 129l3 -20t1 -18q0 -46 -22.5 -94t-61.5 -87q-26 -26 -57.5 -50.5t-64.5 -45.5l-15 19l7 7q87 78 87 168q0 17 -3 31.5t-11 38.5l-4 11zM122 407q29 0 49 -19.5t20 -48.5q0 -28 -19.5 -48t-47.5 -20q-29 0 -48.5 20t-19.5 49q0 28 19 47.5t47 19.5z" />
    <glyph glyph-name="less" unicode="&#x3c;" 
d="M467 582v-95l-332 -156l331 -156l1 -94l-434 210v81z" />
    <glyph glyph-name="equal" unicode="=" 
d="M33 303h434v-84h-434v84zM33 463h434v-83h-434v83z" />
    <glyph glyph-name="greater" unicode="&#x3e;" 
d="M33 81v95l332 156l-331 156l-1 94l434 -210v-81z" />
    <glyph glyph-name="question" unicode="?" horiz-adv-x="402" 
d="M186 130q28 0 47.5 -20t19.5 -49t-19.5 -49.5t-47.5 -20.5t-47.5 20.5t-19.5 49.5t19 49t48 20zM59 661q49 15 85 22t69 7q32 0 61 -10.5t50.5 -27.5t34.5 -39.5t13 -47.5q0 -27 -11 -57t-33 -59q-11 -17 -53 -71q-17 -22 -29 -40t-21.5 -35t-17.5 -34.5t-15 -38.5
l-48 -37q4 23 8.5 43t12 40.5t18.5 44t26 52.5l26.5 53t16.5 38t8 28.5t2 24.5q0 31 -20.5 53t-49.5 22q-33 0 -70 -18t-90 -59z" />
    <glyph glyph-name="at" unicode="@" horiz-adv-x="733" 
d="M351 210q21 0 40 10.5t33 29.5t22 43.5t8 53.5q0 39 -21 62.5t-56 23.5q-22 0 -41.5 -10.5t-34 -28t-23 -41t-8.5 -49.5q0 -42 22.5 -68t58.5 -26zM484 491h67l-39 -202q-6 -32 -6 -44q0 -19 8.5 -30t22.5 -11q19 0 37 15t32.5 39.5t23 56.5t8.5 66q0 52 -18.5 95
t-52.5 74t-80.5 48.5t-102.5 17.5q-60 0 -112.5 -22t-90.5 -61t-60 -91.5t-22 -113.5q0 -44 12.5 -85.5t35 -76t53.5 -60.5t69 -39q28 -10 55.5 -14t62.5 -4q56 0 104.5 9.5t95.5 29.5l17 -60q-48 -20 -102 -30t-114 -10q-78 0 -143 25t-112.5 70.5t-73.5 108t-26 137.5
q0 73 27 136.5t74 110.5t110.5 74t137.5 27q68 0 126 -22.5t100 -62t66 -93.5t24 -117q0 -47 -13.5 -89t-36.5 -74.5t-52.5 -51.5t-62.5 -19q-29 0 -49 17t-25 45q-21 -32 -54 -50t-71 -18q-30 0 -55.5 12t-44.5 33.5t-29.5 50.5t-10.5 64q0 41 14 77.5t38 64t55.5 43.5
t67.5 16q75 0 105 -65z" />
    <glyph glyph-name="A" unicode="A" horiz-adv-x="715" 
d="M312 507l-87 -240h187zM352 692l236 -549q15 -35 27 -57t25.5 -35t30.5 -19t41 -9v-23q-30 1 -51.5 2t-37 1.5t-28 0.5h-25.5h-25.5t-28.5 -0.5t-37 -1.5t-51 -2v23h7q56 0 56 43q0 16 -8 33l-55 136h-214l-45 -127l-8 -26t-3 -18q0 -20 14 -29.5t46 -10.5q2 0 4.5 -0.5
t7.5 -0.5v-23q-24 1 -41.5 2t-30 1.5t-22.5 0.5h-20h-19.5t-22.5 -0.5t-30 -1.5t-41 -2v23q22 1 39 6.5t31 17.5t26 32.5t25 51.5z" />
    <glyph glyph-name="B" unicode="B" horiz-adv-x="585" 
d="M240 328q-11 0 -16.5 -0.5t-15.5 -1.5v-211q0 -27 3 -44t11 -27t22.5 -13.5t37.5 -3.5q139 0 139 128q0 32 -9 60.5t-25.5 51t-39 37t-49.5 19.5q-28 5 -58 5zM208 637v-279q13 0 21 -0.5t22 -0.5q27 0 46.5 2t33.5 7.5t25 14.5t21 23q27 34 27 83q0 27 -8.5 52
t-23.5 44.5t-35.5 32.5t-44.5 18q-13 2 -24.5 3t-28.5 1h-22zM113 3h-21.5t-20 -0.5t-22.5 -1t-29 -1.5v23q23 0 37.5 4.5t23 14.5t11.5 27t3 44v440q0 27 -3 44.5t-11.5 27.5t-23 14t-37.5 4v24l59 -1q14 -1 27 -1h24h15t16.5 0.5t23 1.5t34.5 2q23 1 39 1.5t32 0.5
q40 0 65.5 -3t51.5 -11q24 -7 45 -22t36 -35t23.5 -44t8.5 -49q0 -31 -12 -58t-34 -47t-53.5 -33.5t-69.5 -17.5q17 -2 29.5 -4t22 -4t18.5 -5l20 -7q52 -21 79.5 -61.5t27.5 -94.5q0 -61 -35.5 -105.5t-95.5 -58.5q-25 -6 -48.5 -8.5t-55.5 -2.5h-19t-29 1q-45 1 -85 1.5
t-67 0.5z" />
    <glyph glyph-name="C" unicode="C" horiz-adv-x="727" 
d="M701 182l4 -96q-77 -54 -148 -78t-152 -24q-82 0 -149.5 25t-115.5 70t-74.5 108t-26.5 140q0 78 28 143.5t78.5 113t120.5 73.5t154 26q67 0 136 -13t132 -38v-15l-1 -49v-45l1 -41v-21h-23q-6 42 -26 77t-51 60t-72 39t-88 14q-57 0 -104 -21t-80.5 -60t-51.5 -93
t-18 -120q0 -72 20 -133.5t55.5 -107t83 -71.5t102.5 -26q139 0 251 163h15z" />
    <glyph glyph-name="D" unicode="D" horiz-adv-x="765" 
d="M316 639q-12 0 -26.5 -0.5l-29 -1l-28.5 -1t-24 -1.5v-498v-30q0 -23 5 -38t16.5 -24t31 -12.5t49.5 -3.5q35 0 69 5t59 15q72 28 112.5 98t40.5 168q0 78 -24.5 146.5t-67.5 113.5q-33 34 -75.5 49t-107.5 15zM20 0v23q23 0 37.5 4.5t23 14.5t11.5 27t3 44v440
q0 27 -3 44.5t-11.5 27.5t-23 14t-37.5 4v24l59 -1q13 -1 25 -1h23h20t22.5 0.5t29 1.5t41.5 2q40 2 65.5 2.5t47.5 0.5q97 0 162.5 -22t115.5 -71q46 -45 70.5 -107.5t24.5 -132.5q0 -54 -14.5 -104t-41.5 -91.5t-64.5 -72.5t-82.5 -48q-20 -8 -39.5 -13t-40.5 -8t-45 -4.5
t-52 -1.5q-46 0 -95 3q-29 2 -46 3t-23 1h-31l-73 -1z" />
    <glyph glyph-name="E" unicode="E" horiz-adv-x="555" 
d="M502 667q1 -5 1 -9.5v-6.5q1 -3 1 -10t1 -18q1 -17 1.5 -31t1.5 -27.5t2.5 -28l3.5 -32.5h-31q-5 31 -11 47t-20 32q-12 13 -26.5 22.5t-34 14.5t-45.5 7.5t-63 2.5h-75v-270h74q38 0 61.5 3.5t37 13.5t18.5 28.5t6 47.5h30q-2 -34 -3 -63.5t-1 -61.5q0 -17 0.5 -34
t1.5 -40v-18h-30q-2 27 -8 44.5t-20 27.5t-37.5 13.5t-60.5 3.5h-69v-208q0 -26 3.5 -42t13.5 -25t28.5 -12t47.5 -3q50 0 85 6.5t58 22.5t37 42.5t22 65.5h32q-2 -11 -2.5 -18t-2.5 -29t-3 -36t-1 -20l-4 -50l-1 -19l-164 2l-82 1h-124h-9h-28t-26.5 -0.5t-29.5 -1
t-38 -1.5v23q23 0 37.5 4.5t23 14.5t11.5 27t3 44v440q0 27 -3 44.5t-11.5 27.5t-23 14t-37.5 4v24q22 -1 38 -2t30 -1.5t26.5 -0.5h26.5h10l118 1h77z" />
    <glyph glyph-name="F" unicode="F" horiz-adv-x="531" 
d="M502 667q1 -5 1 -9.5v-6.5q1 -3 1 -10t1 -18q1 -17 1.5 -31t1.5 -27.5t2.5 -28l3.5 -32.5h-31q-5 31 -11 47t-20 32q-12 13 -26.5 22.5t-34 14.5t-45.5 7.5t-63 2.5h-75v-270h74q38 0 61.5 3.5t37 13.5t18.5 28.5t6 47.5h30q-2 -34 -3 -63.5t-1 -61.5q0 -17 0.5 -34
t1.5 -40v-18h-30q-2 27 -8 44.5t-20 27.5t-37.5 13.5t-60.5 3.5h-69v-212q0 -27 3 -44t11.5 -27t23 -14.5t37.5 -4.5v-23q-28 1 -47.5 2t-34.5 1.5t-26.5 0.5h-23.5h-23t-26 -0.5t-34.5 -1.5t-47.5 -2v23q23 0 37.5 4.5t23 14.5t11.5 27t3 44v440q0 27 -3 44.5t-11.5 27.5
t-23 14t-37.5 4v24q22 -1 38 -2t30 -1.5t26.5 -0.5h26.5h10l118 1h77z" />
    <glyph glyph-name="G" unicode="G" horiz-adv-x="793" 
d="M645 286h23.5t26 0.5t34 1.5t47.5 2v-23q-23 0 -37.5 -4.5t-22.5 -14.5t-11.5 -27t-3.5 -44v-130q-44 -17 -81 -29t-71 -19.5t-66.5 -11t-66.5 -3.5q-83 0 -152 25.5t-119 71.5t-78 109.5t-28 139.5q0 79 28.5 144.5t81 111.5t126 71.5t163.5 25.5q134 0 259 -39l4 -169
h-28q-5 40 -14.5 63t-29.5 43q-35 34 -84.5 52t-108.5 18q-125 0 -193 -73t-68 -207q0 -75 22 -139.5t61 -112t92.5 -74t115.5 -26.5q61 0 122 39v119q0 27 -3 44t-11.5 27t-23 14.5t-37.5 4.5v23q28 -1 48 -2t34.5 -1.5t26 -0.5h23.5z" />
    <glyph glyph-name="H" unicode="H" horiz-adv-x="772" 
d="M620 663h23.5t26.5 0.5t34.5 1t47.5 2.5v-24q-23 0 -37.5 -4t-23 -14t-11.5 -27.5t-3 -44.5v-440q0 -27 3 -44t11.5 -27t23 -14.5t37.5 -4.5v-23q-28 1 -48 2t-34.5 1.5t-26 0.5h-23.5h-23.5t-26 -0.5t-34 -1.5t-47.5 -2v23q22 0 37 4.5t23 14.5t11.5 27t3.5 44v223h-356
v-223q0 -27 3 -44t11.5 -27t23 -14.5t37.5 -4.5v-23q-28 1 -47.5 2t-34.5 1.5t-26.5 0.5h-23.5h-23t-26 -0.5t-34.5 -1.5t-47.5 -2v23q23 0 37.5 4.5t23 14.5t11.5 27t3 44v440q0 27 -3 44.5t-11.5 27.5t-23 14t-37.5 4v24q28 -2 47.5 -2.5t34.5 -1t26 -0.5h23h23.5
t26.5 0.5t34.5 1t47.5 2.5v-24q-23 0 -37.5 -4t-23 -14t-11.5 -27.5t-3 -44.5v-180h356v180q0 27 -3.5 44.5t-11.5 27.5t-23 14t-37 4v24q28 -2 47.5 -2.5t34.5 -1t26 -0.5h23z" />
    <glyph glyph-name="I" unicode="I" horiz-adv-x="303" 
d="M152 663h23t26 0.5t34.5 1t47.5 2.5v-24q-23 0 -37.5 -4t-23 -14t-11.5 -27.5t-3 -44.5v-440q0 -27 3 -44t11.5 -27t23 -14.5t37.5 -4.5v-23q-28 1 -47.5 2t-34.5 1.5t-26.5 0.5h-23.5h-23t-26 -0.5t-34.5 -1.5t-47.5 -2v23q23 0 37.5 4.5t23 14.5t11.5 27t3 44v440
q0 27 -3 44.5t-11.5 27.5t-23 14t-37.5 4v24q28 -2 47.5 -2.5t34.5 -1t26.5 -0.5h23.5z" />
    <glyph glyph-name="J" unicode="J" horiz-adv-x="390" 
d="M242 663h23t26 0.5t34.5 1t47.5 2.5v-24q-23 0 -37.5 -4t-23 -14t-11.5 -27.5t-3 -44.5v-372q0 -26 -1 -44t-3.5 -32t-7 -25t-11.5 -22q-44 -74 -154 -74q-31 0 -56.5 4t-51.5 14v136h34q9 -119 80 -119q33 0 45.5 21.5t12.5 80.5v432q0 27 -3 44.5t-11.5 27.5t-23 14
t-37.5 4v24q28 -2 47.5 -2.5t34.5 -1t26.5 -0.5h23.5z" />
    <glyph glyph-name="K" unicode="K" horiz-adv-x="711" 
d="M532 663h21.5t24 0.5t31.5 1t44 2.5v-24q-23 0 -42.5 -4t-38.5 -14t-39 -25.5t-43 -39.5l-156 -156l257 -316q16 -20 28.5 -32.5t25 -19.5t26.5 -9.5t34 -3.5v-23q-24 1 -40.5 2t-28.5 1.5t-21.5 0.5h-19.5h-19.5t-21.5 -0.5t-28.5 -1.5t-39.5 -2q-1 12 -2.5 20.5t-5 17
t-10.5 18t-19 24.5l-154 192l-15 18l-16 19l-9 10l-4 4l-43 -44v-166q0 -27 3 -44t11.5 -27t23 -14.5t37.5 -4.5v-23q-28 1 -47.5 2t-34.5 1.5t-26.5 0.5h-23.5h-23t-26 -0.5t-34.5 -1.5t-47.5 -2v23q23 0 37.5 4.5t23 14.5t11.5 27t3 44v440q0 27 -3 44.5t-11.5 27.5
t-23 14t-37.5 4v24q28 -2 47.5 -2.5t34.5 -1t26 -0.5h23h23.5t26.5 0.5t34.5 1t47.5 2.5v-24q-23 0 -37.5 -4t-23 -14t-11.5 -27.5t-3 -44.5v-227l233 248q14 15 19.5 24.5t5.5 17.5q0 14 -12 20.5t-39 6.5h-5v24q26 -2 44 -2.5t32 -1t24.5 -0.5h21.5z" />
    <glyph glyph-name="L" unicode="L" horiz-adv-x="568" 
d="M151 663h23.5t26.5 0.5t34.5 1t47.5 2.5v-24q-23 0 -37.5 -4t-23 -14t-11.5 -27.5t-3 -44.5v-436q0 -26 3.5 -42t14 -25t30 -12t50.5 -3q45 0 77 3.5t54.5 11.5t37 21.5t25.5 34.5q16 29 23 66h32q-2 -11 -2.5 -18t-2.5 -29t-3 -36t-1 -20l-4 -50l-1 -19l-164 2l-92 1
h-134h-9h-28t-26.5 -0.5t-29.5 -1t-38 -1.5v23q23 0 37.5 4.5t23 14.5t11.5 27t3 44v440q0 27 -3 44.5t-11.5 27.5t-23 14t-37.5 4v24q28 -2 47.5 -2.5t34.5 -1t26 -0.5h23z" />
    <glyph glyph-name="M" unicode="M" horiz-adv-x="902" 
d="M128 663h17t18.5 0.5t25 1t34.5 2.5l229 -520l226 520q20 -2 34.5 -2.5t25 -1t19 -0.5h16.5h17.5t19 0.5t25 1t34.5 2.5v-24q-24 0 -38.5 -3.5t-22.5 -12.5t-11 -25.5t-3 -43.5v-5l13 -440q1 -27 4.5 -44.5t12.5 -27.5t23.5 -14t37.5 -4l1 -23q-30 1 -50.5 2t-36 1.5
t-28 0.5h-24.5h-24t-27.5 -0.5t-36 -1.5t-49.5 -2v23h6q42 0 59 17.5t18 62.5v19l-12 456l-252 -591h-28l-252 564l-3 -421v-8q0 -28 4 -46.5t13.5 -30t25.5 -16.5t41 -6v-23q-22 1 -37.5 2t-27.5 1.5t-22 0.5h-20q-20 0 -41.5 -1l-64.5 -3v23q23 1 38.5 7t24.5 18t13 32
t5 50l10 423v6q0 26 -3 42t-11.5 25.5t-23 13t-37.5 3.5v24q20 -2 34.5 -2.5t25 -1t19 -0.5h16.5z" />
    <glyph glyph-name="N" unicode="N" horiz-adv-x="792" 
d="M667 663h18.5t21 0.5t27 1t38.5 2.5v-24h-7q-23 -2 -37.5 -7t-23 -15t-12 -26.5t-3.5 -41.5v-566h-28l-514 568v-420q0 -32 4 -52.5t13.5 -33.5t27 -18.5t44.5 -7.5v-23q-23 1 -39.5 2t-28.5 1.5t-21.5 0.5h-18.5h-19.5t-21.5 -0.5t-28 -1.5t-39 -2v23q25 3 41 9.5
t25.5 19t13 32.5t3.5 51v416v21q0 37 -16.5 53t-56.5 18h-7v24q37 -3 54.5 -3.5t34.5 -0.5h16t18 0.5t23 1t32 2.5l444 -494v378q0 26 -3.5 43t-12.5 27t-25 15t-42 7v24q22 -2 37.5 -2.5t27.5 -1t21.5 -0.5h18.5z" />
    <glyph glyph-name="O" unicode="O" horiz-adv-x="812" 
d="M636 304v12q-2 75 -21.5 136.5t-52 105.5t-77 68.5t-97.5 24.5q-49 0 -88 -20t-66 -57t-41.5 -90t-14.5 -120q0 -75 18.5 -138.5t51.5 -109t78.5 -71.5t99.5 -26q48 0 87 20t66 57t42 89.5t15 118.5zM403 683q81 0 148.5 -26t116.5 -73t76.5 -111.5t27.5 -141.5
t-25 -140.5t-70.5 -110t-108.5 -72t-139 -25.5q-83 0 -154.5 27t-124 74t-82 112t-29.5 140q0 74 27.5 137.5t76.5 110t115.5 73t144.5 26.5z" />
    <glyph glyph-name="P" unicode="P" horiz-adv-x="546" 
d="M208 635v-290q22 -5 33.5 -6t28.5 -1q60 0 94 34.5t34 97.5q0 46 -21 87.5t-53 60.5q-17 10 -35 13.5t-51 3.5h-20h-10zM272 305h-30t-34 2v-194q0 -27 3 -44t11.5 -27t23 -14.5t37.5 -4.5v-23q-28 1 -47.5 2t-34.5 1.5t-26.5 0.5h-23.5h-23t-26 -0.5t-34.5 -1.5
t-47.5 -2v23q23 0 37.5 4.5t23 14.5t11.5 27t3 44v440q0 27 -3 44.5t-11.5 27.5t-23 14t-37.5 4v24l59 -2q17 -1 31.5 -1h26.5h14t16 0.5t22 1t32 1.5q23 1 37 1h28q113 0 173.5 -47t60.5 -137q0 -60 -32 -103.5t-89 -60.5q-30 -8 -58 -11.5t-69 -3.5z" />
    <glyph glyph-name="Q" unicode="Q" horiz-adv-x="812" 
d="M636 304v12q-2 75 -21.5 136.5t-52 105.5t-77 68.5t-97.5 24.5q-49 0 -88 -20t-66 -57t-41.5 -90t-14.5 -120q0 -75 18.5 -138.5t51.5 -109t78.5 -71.5t99.5 -26q48 0 87 20t66 57t42 89.5t15 118.5zM538 -2q-9 -3 -16 -4.5t-20 -3.5q15 -51 33.5 -81t46.5 -50
q29 -20 60.5 -30.5t84.5 -15.5v-31q-84 3 -146 16t-106 37.5t-71.5 62t-42.5 90.5q-75 14 -134.5 45t-101.5 76t-64 102.5t-22 124.5q0 74 27.5 137.5t76.5 110t115.5 73t144.5 26.5q81 0 148.5 -26t116.5 -73t76.5 -111.5t27.5 -141.5q0 -60 -16.5 -114t-47 -97.5t-74 -75
t-96.5 -46.5z" />
    <glyph glyph-name="R" unicode="R" horiz-adv-x="643" 
d="M208 636v-290q11 -1 16.5 -1h12.5q65 0 101 15q32 13 49 43t17 72q0 44 -18 81.5t-48 57.5q-20 13 -42.5 18t-60.5 5h-9zM442 353q-11 -6 -21 -10t-30 -10q11 -10 17 -19t17 -29l55 -103l36 -67t23.5 -39.5t17 -22.5t17.5 -15q14 -10 35 -14q8 -2 13.5 -2.5t16.5 -0.5
v-23q-20 -4 -34 -5.5t-29 -1.5q-46 0 -85.5 15t-65.5 43q-11 12 -22 28t-24 38.5t-29 53.5l-37 73q-10 21 -19.5 34.5t-20.5 22t-25.5 11.5t-33.5 3h-6v-200q0 -27 3 -44t11.5 -27t23 -14.5t37.5 -4.5v-23q-28 1 -47.5 2t-34.5 1.5t-26.5 0.5h-23.5h-23t-26 -0.5t-34.5 -1.5
t-47.5 -2v23q23 0 37.5 4.5t23 14.5t11.5 27t3 44v440q0 27 -3 44.5t-11.5 27.5t-23 14t-37.5 4v24l63 -1.5t45 -0.5h31.5t27 0.5t28.5 1.5t34 2q25 2 45 2h36q91 0 144.5 -46t53.5 -124q0 -47 -23 -87t-63 -61z" />
    <glyph glyph-name="S" unicode="S" horiz-adv-x="504" 
d="M440 666l10 -172h-32q-3 17 -6 28.5t-6 20.5t-7 17t-10 17q-22 34 -59 54t-79 20q-25 0 -46.5 -8.5t-37.5 -22.5t-25 -33t-9 -41q0 -17 5 -31t16.5 -27.5t31 -27.5t48.5 -30l66 -37q36 -21 61 -37t42 -30t28 -28t20 -30q20 -37 20 -84q0 -44 -16.5 -81t-45.5 -63.5
t-70 -41t-90 -14.5q-22 0 -47.5 2t-52.5 5t-54 7.5t-51 9.5l-7 172h32l2 -8q6 -23 13 -39.5t15.5 -29.5t20 -24t27.5 -23q52 -37 111 -37q25 0 47 9t38 24t25.5 36t9.5 45q0 33 -20 59.5t-63 49.5l-95 50q-45 23 -68 39.5t-40 34.5q-24 26 -37.5 58.5t-13.5 65.5
q0 43 16.5 78.5t46.5 61t72.5 39.5t93.5 14q29 0 67 -4t91 -12z" />
    <glyph glyph-name="T" unicode="T" horiz-adv-x="626" 
d="M611 667l5 -185h-33q-4 45 -15 72t-34 43q-8 6 -15.5 9.5t-17 5.5t-23 2.5t-32.5 0.5h-76v-502q0 -27 3 -44t11.5 -27t23 -14.5t37.5 -4.5v-23q-28 1 -48 2t-34.5 1.5t-26 0.5h-23.5h-23.5t-26 -0.5t-34 -1.5t-47.5 -2v23q22 0 37 4.5t23 14.5t11.5 27t3.5 44v502h-99
q-56 0 -81.5 -30t-32.5 -106h-34l8 188l133 -3q45 -1 86 -1h80h77.5t81.5 1z" />
    <glyph glyph-name="U" unicode="U" horiz-adv-x="761" 
d="M744 643q-45 -2 -62 -24t-17 -76v-232q0 -39 -1.5 -67.5t-5.5 -51t-10.5 -41t-16.5 -36.5q-35 -65 -98 -98t-151 -33q-53 0 -99 13.5t-82 38.5t-61 61t-36 80q-7 26 -9.5 53t-2.5 67v256q0 27 -3.5 44.5t-11.5 27.5t-23 14t-37 4v24q28 -2 47.5 -2.5t34.5 -1t26 -0.5h23
h23.5t26 0.5t34.5 1t48 2.5v-24q-23 0 -37.5 -4t-23 -14t-12 -27.5t-3.5 -44.5v-279q0 -31 1.5 -54t5 -41t9 -32.5t13.5 -29.5q26 -47 72 -72t105 -25q49 0 88 16t66.5 45t42 71t14.5 94v37v253q0 31 -3 50.5t-11.5 31t-23 17t-38.5 7.5l-12 1v24q22 -2 38 -2.5t28 -1
t21.5 -0.5h18.5h18.5t21 0.5t27 1t38.5 2.5v-24z" />
    <glyph glyph-name="V" unicode="V" horiz-adv-x="750" 
d="M634 663h18.5t22 0.5t29 1t39.5 2.5v-24q-26 0 -43.5 -5t-31 -17t-25.5 -33.5t-25 -55.5l-220 -545h-24l-255 548q-15 32 -26.5 52t-23 31.5t-26 16.5t-36.5 8v24q32 -2 54.5 -2.5t39.5 -1t30 -0.5h27h26t30 0.5t39.5 1t54.5 2.5v-24q-81 0 -81 -49q0 -9 2.5 -20.5
t7.5 -22.5l188 -419l150 419q5 14 8 27.5t3 22.5q0 22 -14 31t-49 11v24l67.5 -3t43.5 -1z" />
    <glyph glyph-name="W" unicode="W" horiz-adv-x="1000" 
d="M887 663h18.5t21.5 0.5t28 1t39 2.5v-24q-26 -2 -43 -7.5t-30 -19t-23.5 -37t-23.5 -62.5l-177 -530h-23l-180 484l-164 -484h-21l-204 552l-13 37q-13 35 -31.5 50t-53.5 17v24q30 -2 51 -2.5t36.5 -1t27.5 -0.5h24h24.5t28 0.5t36.5 1t51 2.5v-24h-14q-60 -3 -60 -48
q0 -19 9 -41l137 -385l165 511h16l185 -517l115 384q4 14 6 24.5t2 18.5q0 27 -14.5 38.5t-52.5 14.5v24q23 -2 39 -2.5t28 -1t21 -0.5h19z" />
    <glyph glyph-name="X" unicode="X" horiz-adv-x="750" 
d="M609 663q19 0 41.5 0.5t69.5 3.5v-26q-23 -3 -39.5 -8t-32 -15.5t-32 -27t-39.5 -43.5l-155 -181l162 -228q22 -32 39.5 -52.5t34.5 -33t35.5 -19t43.5 -10.5v-23q-33 1 -56 2t-40.5 1.5t-31 0.5h-27.5h-27.5t-31 -0.5t-40 -1.5t-55.5 -2v23q35 0 49.5 8t14.5 26
q0 14 -14 34l-132 187l-135 -172q-17 -23 -23 -33t-6 -21q0 -14 11.5 -20.5t40.5 -8.5v-23l-69.5 3t-42.5 1h-20t-22.5 -0.5t-29 -1.5t-40.5 -2v23q24 1 43 6t37 16.5t37 31t45 50.5l153 185l-141 192l-36 49q-16 22 -30 37.5t-28.5 26t-31 16.5t-36.5 10v24q33 -2 56 -2.5
t40 -1t30.5 -0.5h27.5h26.5t31 0.5t40 1t55.5 2.5v-24q-31 -2 -48 -13t-17 -30q0 -9 3.5 -18t11.5 -20l122 -167l137 174q18 24 18 38q0 32 -59 36v24q24 -2 40.5 -2.5t29 -1t22.5 -0.5h20z" />
    <glyph glyph-name="Y" unicode="Y" horiz-adv-x="656" 
d="M547 663h18t20.5 0.5t26.5 1t37 2.5v-24q-18 -1 -31 -5.5t-24 -13.5t-21.5 -24.5t-22.5 -39.5l-168 -325v-122q0 -27 3.5 -44t12 -27t23 -14.5t37.5 -4.5v-23q-28 1 -48 2t-34.5 1.5t-26 0.5h-23.5h-23.5t-26 -0.5t-34 -1.5t-47.5 -2v23q22 0 37 4.5t23 14.5t11.5 27
t3.5 44v123l-135 283q-20 41 -33 64.5t-26 36t-28.5 17t-40.5 6.5v24q33 -2 55.5 -2.5t39 -1t29.5 -0.5h26h26t29.5 0.5t39 1t55.5 2.5v-24q-42 -1 -58 -10.5t-16 -33.5q0 -11 3 -23t8 -23l124 -263l124 259q13 26 13 48t-14 33t-46 13v24q22 -2 37 -2.5t26.5 -1t20.5 -0.5
h18z" />
    <glyph glyph-name="Z" unicode="Z" horiz-adv-x="645" 
d="M625 667l-434 -620h247q55 0 83 12t45 44q6 10 9.5 18t6 17t4.5 20.5t4 28.5h35l-11 -187l-132 2q-35 0 -76 0.5t-89 0.5t-89.5 -0.5t-76.5 -0.5l-131 -2l431 616h-236q-21 0 -33.5 -0.5t-20.5 -2t-13.5 -3.5t-11.5 -6q-12 -8 -21 -17t-15 -23.5t-10.5 -34.5t-8.5 -48
h-34l9 186l127 -3q37 -1 82.5 -1h79.5h73t80 1z" />
    <glyph glyph-name="bracketleft" unicode="[" horiz-adv-x="307" 
d="M287 -43v-24h-218v800h218v-23h-21q-26 0 -43 -4.5t-27 -16t-14 -31t-4 -49.5v-551q0 -30 4 -49.5t14 -31t27 -16t43 -4.5h21z" />
    <glyph glyph-name="backslash" unicode="\" 
d="M120 750l335 -833h-93l-336 833h94z" />
    <glyph glyph-name="bracketright" unicode="]" horiz-adv-x="307" 
d="M20 710v23h218v-800h-218v24h21q26 0 43 4.5t27 16t14 31t4 49.5v551q0 30 -4 49.5t-14 31t-27 16t-43 4.5h-21z" />
    <glyph glyph-name="asciicircum" unicode="^" 
d="M118 353h-101l170 316h126l170 -316h-102l-131 240z" />
    <glyph glyph-name="underscore" unicode="_" 
d="M0 -59h500v-85h-500v85z" />
    <glyph glyph-name="quoteleft" unicode="&#x2018;" horiz-adv-x="293" 
d="M40 394l-3 20t-1 18q0 46 22.5 94t61.5 87q26 26 57.5 51t64.5 45l16 -19l-8 -7q-87 -78 -87 -168q0 -17 3 -31.5t11 -38.5l4 -10z" />
    <glyph glyph-name="a" unicode="a" horiz-adv-x="450" 
d="M275 198l-13 -3q-119 -22 -119 -90q0 -27 18.5 -43.5t47.5 -16.5q16 0 31 5.5t35 16.5v131zM402 56q6 0 11.5 1.5t16.5 6.5v-24l-13 -4l-37.5 -13.5l-29 -10.5t-27 -11l-32.5 -15q-7 19 -9 28t-4 29q-42 -29 -73 -41t-65 -12q-23 0 -42.5 7t-34 19.5t-23 29t-8.5 35.5
q0 103 187 133l40 7l16 2v73v22q-1 36 -22.5 57.5t-57.5 21.5q-21 0 -35 -15.5t-14 -39.5q0 -11 3 -20.5t11 -28.5l-108 -45q-8 17 -10 26t-2 23q0 25 12 43.5t40 35.5q38 24 80 37.5t82 13.5q58 0 91 -38t33 -104v-174q0 -34 4.5 -44.5t19.5 -10.5z" />
    <glyph glyph-name="b" unicode="b" horiz-adv-x="520" 
d="M240 381q-17 0 -32.5 -5t-35.5 -17v-312q19 -14 36 -20.5t38 -6.5q31 0 56.5 12.5t43.5 35t27.5 54.5t9.5 71q0 38 -11.5 72.5t-31 60t-45.5 40.5t-55 15zM13 667q32 5 68 16t91 34v-329q73 39 143 39q38 0 69 -14t53.5 -39t34.5 -60t12 -78q0 -53 -17.5 -98t-48.5 -78
t-74 -51.5t-93 -18.5q-38 0 -91 11t-108 31q5 26 8.5 46t5.5 39t3 39.5t1 47.5v390q0 17 -1.5 27t-6.5 15t-15 6t-28 1h-6v24z" />
    <glyph glyph-name="c" unicode="c" horiz-adv-x="430" 
d="M268 427q35 0 64.5 -5t67.5 -18l7 -108l-25 -2q-24 106 -120 106q-53 0 -84 -43.5t-31 -115.5q0 -46 11.5 -86t31.5 -70t47 -47t57 -17t54.5 15.5t56.5 55.5l6 8l-9 -71q-25 -11 -44.5 -18.5t-36.5 -12t-33.5 -6.5t-35.5 -2q-49 0 -88.5 15.5t-68 43.5t-44 68t-15.5 89
q0 50 16.5 90.5t47 69.5t73.5 45t95 16z" />
    <glyph glyph-name="d" unicode="d" horiz-adv-x="520" 
d="M345 365q-24 16 -49 25t-48 9q-45 0 -72.5 -44t-27.5 -116q0 -42 10 -78t28.5 -61.5t44 -40t55.5 -14.5q20 0 31 4t28 15v301zM288 667q32 5 68 16t91 34v-606q0 -34 5 -44.5t19 -10.5q6 0 12 1.5t17 6.5v-24l-14 -4l-37.5 -13.5l-28.5 -10.5t-26.5 -11l-32.5 -15
q-8 19 -10 28t-4 29q-21 -16 -36.5 -26t-29.5 -16t-27.5 -8.5t-29.5 -2.5q-40 0 -74 15.5t-59.5 43t-40 65t-14.5 80.5q0 49 16.5 91.5t46 74t69 49.5t84.5 18q25 0 47.5 -3.5t45.5 -9.5v180q0 17 -1.5 27t-6.5 15t-15 6t-28 1h-6v24z" />
    <glyph glyph-name="e" unicode="e" horiz-adv-x="448" 
d="M309 259l-1 16q-3 125 -76 125q-43 0 -63 -33.5t-21 -107.5h161zM300 21q57 0 115 87l6 -70q-38 -25 -75.5 -36.5t-82.5 -11.5q-51 0 -92.5 16t-71.5 44.5t-46.5 69t-16.5 89.5q0 48 14.5 88t41 69t62.5 45t79 16q55 0 100 -24.5t65 -65.5q6 -13 10 -23.5t6.5 -22.5
t3 -26.5t0.5 -35.5h-268q2 -38 6 -58.5t15 -45.5q19 -48 54 -76t75 -28z" />
    <glyph glyph-name="f" unicode="f" horiz-adv-x="325" 
d="M332 417l-16 -37h-131v-232v-48.5t1 -29.5t2.5 -16.5t3.5 -9.5q6 -11 18 -15.5t37 -5.5v-23q-24 1 -40.5 2t-28.5 1.5t-21.5 0.5h-19.5q-20 0 -42 -1l-69 -3v23q27 2 39.5 10t14.5 26q2 9 2 27.5v61.5v232h-62v37h62l1 48q0 28 0.5 46.5t2.5 32.5t6 26t10 27
q21 51 70 82.5t109 31.5q12 0 21 -0.5t18.5 -1.5t21.5 -3.5t30 -5.5l3 -127h-30q-9 109 -84 109q-40 0 -58 -31.5t-18 -103.5v-130h147z" />
    <glyph glyph-name="g" unicode="g" horiz-adv-x="446" 
d="M227 -166q54 0 87 23t33 59q0 32 -46 49.5t-128 17.5q-26 0 -45 -19t-19 -45q0 -37 33 -61t85 -24zM223 175q26 0 43 25t17 66q0 28 -6 52.5t-17 42.5t-25.5 28.5t-31.5 10.5q-29 0 -46.5 -24.5t-17.5 -65.5q0 -59 23.5 -97t60.5 -38zM436 407l-18 -42h-69q21 -21 30 -40
t9 -44q0 -47 -30.5 -81.5t-80.5 -43.5q-26 -5 -63 -7h-13q-18 -13 -25 -21.5t-7 -18.5q0 -11 3 -17t14 -10t33 -6t60 -5q78 -6 113.5 -33t35.5 -80q0 -33 -15.5 -61t-43 -47.5t-66.5 -30.5t-86 -11q-42 0 -76.5 8.5t-59 24t-38.5 37.5t-14 48q0 35 24.5 57.5t69.5 30.5
q-29 14 -41 27t-12 30q0 25 20 42.5t73 39.5q-128 30 -128 129q0 31 13 58t35.5 46t53.5 30t68 11q26 0 48.5 -4.5t46.5 -15.5h136z" />
    <glyph glyph-name="h" unicode="h" horiz-adv-x="530" 
d="M20 667q32 5 68 16t91 34v-372q50 44 86.5 63t73.5 19q38 0 66.5 -19.5t37.5 -51.5q5 -18 7 -44t2 -68v-96v-48.5t1 -29.5t2.5 -16.5t3.5 -9.5q6 -11 17 -15t34 -6v-23q-23 1 -39 2t-28 1.5t-21.5 0.5h-19.5h-19.5t-21.5 -0.5t-28 -1.5t-39 -2v23q27 2 39 10t15 26
q1 9 1.5 27.5t0.5 61.5v119q0 50 -17.5 71.5t-58.5 21.5q-23 0 -44 -9.5t-51 -33.5v-169v-48.5t1 -29.5t2.5 -16.5t3.5 -9.5q11 -20 46 -21v-23q-23 1 -38.5 2t-27.5 1.5t-21.5 0.5h-18.5h-18.5t-21.5 -0.5t-28 -1.5t-38 -2v23q50 1 54 36q2 9 2 27.5v61.5v446q0 17 -1 27
t-6 15t-15 6t-28 1h-6v24z" />
    <glyph glyph-name="i" unicode="i" horiz-adv-x="259" 
d="M27 373q35 7 74.5 21.5t84.5 38.5v-285v-48.5t0.5 -29.5t2 -16.5t3.5 -9.5q12 -20 47 -21v-23q-23 1 -39 2t-27.5 1.5t-21 0.5h-18.5h-18.5t-21.5 -0.5t-28 -1.5t-38 -2v23q26 1 38.5 9.5t15.5 26.5q1 9 1.5 27.5t0.5 61.5v154q0 31 -6.5 39.5t-29.5 8.5h-12h-8v23z
M132 642q26 0 44 -18.5t18 -44.5q0 -25 -18.5 -43.5t-42.5 -18.5q-26 0 -44.5 18.5t-18.5 44.5t18 44t44 18z" />
    <glyph glyph-name="j" unicode="j" horiz-adv-x="259" 
d="M26 373q35 7 74.5 21.5t84.5 38.5v-404l-1 -35q0 -25 -0.5 -42t-2.5 -29.5t-5 -22.5t-8 -20q-17 -35 -49 -54t-73 -19q-42 0 -82 15v100h27q5 -48 16.5 -68t34.5 -20q22 0 30.5 14t9.5 50v16v388q0 31 -6.5 39.5t-29.5 8.5h-12h-8v23zM131 642q26 0 44 -18.5t18 -44.5
q0 -25 -18.5 -43.5t-42.5 -18.5q-26 0 -44.5 18.5t-18.5 44.5t18 44t44 18z" />
    <glyph glyph-name="k" unicode="k" horiz-adv-x="513" 
d="M20 667q32 5 68 16t91 34v-481l111 95q25 20 25 35q0 11 -9 17.5t-32 9.5v24q40 -3 59 -3.5t36 -0.5h17t18.5 0.5t25 1t34.5 2.5v-24l-8 -1q-29 -5 -53 -18t-53 -37l-56 -48l109 -178l20 -30q11 -17 19 -27.5t16.5 -16.5t19 -9t25.5 -5v-23q-37 2 -53.5 3t-30.5 1
t-30.5 -1t-53.5 -3q0 8 -0.5 14t-3 12.5t-7 14.5t-12.5 21l-99 162l-34 -25v-51v-48.5t1 -29.5t2.5 -16.5t3.5 -9.5q11 -20 46 -21v-23q-23 1 -38.5 2t-27.5 1.5t-21.5 0.5h-18.5h-18.5t-21.5 -0.5t-28 -1.5t-38 -2v23q50 1 54 36q2 9 2 27.5v61.5v446q0 17 -1 27t-6 15
t-15 6t-28 1h-6v24z" />
    <glyph glyph-name="l" unicode="l" horiz-adv-x="252" 
d="M20 667q32 5 68 16t91 34v-569v-48.5t1 -29.5t2.5 -16.5t3.5 -9.5q11 -20 46 -21v-23q-23 1 -38.5 2t-27.5 1.5t-21.5 0.5h-18.5h-18.5t-21.5 -0.5t-28 -1.5t-38 -2v23q50 1 54 36q2 9 2 27.5v61.5v446q0 17 -1 27t-6 15t-15 6t-28 1h-6v24z" />
    <glyph glyph-name="m" unicode="m" horiz-adv-x="814" 
d="M27 373q67 9 163 60v-88q49 44 86 63t72 19q45 0 74.5 -24t35.5 -63q91 87 165 87q38 0 66.5 -19.5t37.5 -51.5q5 -18 7.5 -44t2.5 -68v-96v-48.5t1 -29.5t2 -16.5t4 -9.5q6 -11 16.5 -15t33.5 -6v-23q-23 1 -39 2t-28 1.5t-21.5 0.5h-19.5h-19.5t-21.5 -0.5t-28 -1.5
t-39 -2v23q27 2 39 10t15 26q2 9 2 27.5v61.5v119q0 50 -17.5 71.5t-58.5 21.5q-23 0 -41.5 -8t-47.5 -30l-8 -6q2 -12 2 -29v-43v-96v-48.5t1 -29.5t2.5 -16.5t3.5 -9.5q6 -11 17 -15t34 -6v-23q-23 1 -39.5 2t-28.5 1.5t-21.5 0.5h-18.5h-19.5t-21.5 -0.5t-28.5 -1.5
t-39.5 -2v23q27 2 39.5 10t14.5 26q2 9 2 27.5v61.5v119q0 50 -17 71.5t-59 21.5q-23 0 -43.5 -9.5t-50.5 -33.5v-169v-48.5t0.5 -29.5t2 -16.5t3.5 -9.5q7 -11 18.5 -15.5t36.5 -5.5v-23q-23 1 -39.5 2t-29 1.5t-22 0.5h-19.5h-19.5t-22 -0.5t-29 -1.5t-39.5 -2v23
q27 2 39 10t15 26q1 9 1.5 27.5t0.5 61.5v154q0 31 -6.5 39.5t-29.5 8.5h-12l-12 -1v24z" />
    <glyph glyph-name="n" unicode="n" horiz-adv-x="541" 
d="M27 373q67 9 163 60v-88q49 44 86 63t73 19q38 0 67 -19.5t38 -51.5q5 -18 7 -44t2 -68v-96v-48.5t1 -29.5t2.5 -16.5t3.5 -9.5q6 -11 17 -15t34 -6v-23q-23 1 -39.5 2t-28.5 1.5t-21.5 0.5h-18.5h-19.5t-21.5 -0.5t-28.5 -1.5t-39.5 -2v23q27 2 39.5 10t14.5 26
q2 9 2 27.5v61.5v119q0 50 -17 71.5t-59 21.5q-23 0 -43.5 -9.5t-50.5 -33.5v-169v-48.5t0.5 -29.5t2 -16.5t3.5 -9.5q7 -11 18.5 -15.5t36.5 -5.5v-23q-23 1 -39.5 2t-29 1.5t-22 0.5h-19.5h-19.5t-22 -0.5t-29 -1.5t-39.5 -2v23q27 2 39 10t15 26q1 9 1.5 27.5t0.5 61.5
v154q0 31 -6.5 39.5t-29.5 8.5h-12l-12 -1v24z" />
    <glyph glyph-name="o" unicode="o" horiz-adv-x="511" 
d="M282 21q39 0 60.5 28t21.5 82q0 22 -3 47t-8 50.5t-11.5 49.5t-14.5 43q-16 38 -41 58.5t-57 20.5q-41 0 -63 -30t-22 -84q0 -45 9.5 -93.5t26.5 -89.5q34 -82 102 -82zM250 427q48 0 89.5 -17t71.5 -47t47 -71.5t17 -90.5q0 -46 -16.5 -84.5t-46.5 -66.5t-71 -44
t-89 -16q-49 0 -89 15.5t-68 44t-43.5 68.5t-15.5 89t15.5 89.5t44 69.5t68 45t86.5 16z" />
    <glyph glyph-name="p" unicode="p" horiz-adv-x="532" 
d="M254 381q-41 0 -75 -26v-301q27 -19 45.5 -26.5t40.5 -7.5q58 0 90 42t32 117q0 41 -10.5 78t-28.5 64.5t-42.5 43.5t-51.5 16zM20 373q36 7 75 21.5t84 38.5v-52q38 24 69.5 35t63.5 11q40 0 73.5 -15.5t58 -42.5t38.5 -64t14 -81q0 -50 -17 -93t-47.5 -74.5t-72 -49
t-89.5 -17.5q-23 0 -44 3.5t-47 11.5v-44v-48.5t1 -29t2.5 -16t3.5 -9.5q6 -11 18 -15.5t37 -5.5v-24q-47 3 -69 3.5t-42 0.5h-19.5t-21.5 -0.5t-28.5 -1.5t-40.5 -2v24q27 2 39.5 10t14.5 26q2 9 2 27.5v60.5v341q0 31 -6.5 39.5t-29.5 8.5h-12h-8v23z" />
    <glyph glyph-name="q" unicode="q" horiz-adv-x="515" 
d="M345 353q-52 39 -99 39q-43 0 -70.5 -40t-27.5 -103q0 -42 10.5 -79t29 -64.5t43 -44t51.5 -16.5q33 0 63 24v284zM448 417v-456v-48.5t1 -29t2.5 -16t3.5 -9.5q6 -11 16.5 -15.5t30.5 -5.5v-24q-23 1 -39 2t-28 1.5t-21.5 0.5h-18.5h-18.5t-21 -0.5t-27.5 -1.5t-39 -2
v24q19 0 30 3t17 12t7.5 26.5t1.5 47.5v35v76q-61 -40 -118 -40q-39 0 -74 17t-61 45.5t-41 67t-15 82.5q0 46 15.5 85.5t42.5 69t63.5 46.5t78.5 17q34 0 65.5 -10.5t71.5 -33.5z" />
    <glyph glyph-name="r" unicode="r" horiz-adv-x="366" 
d="M27 373q67 9 163 60v-123q27 57 62 87t74 30q7 0 12 -1t14 -3v-136h-25q-7 45 -46 45q-26 0 -50.5 -16.5t-40.5 -43.5v-124v-48.5t0.5 -29.5t2 -16.5t3.5 -9.5q7 -11 18.5 -15.5t36.5 -5.5v-23q-23 1 -39.5 2t-29 1.5t-22 0.5h-19.5h-19.5t-22 -0.5t-29 -1.5t-39.5 -2v23
q27 2 39 10t15 26q1 9 1.5 27.5t0.5 61.5v154q0 31 -6.5 39.5t-29.5 8.5h-12l-12 -1v24z" />
    <glyph glyph-name="s" unicode="s" horiz-adv-x="364" 
d="M315 414l4 -111h-26q-10 46 -36.5 71.5t-65.5 25.5q-30 0 -50 -16.5t-20 -41.5q0 -20 14 -34.5t51 -33.5l29 -15t21 -11.5l17 -10.5l17 -11q64 -44 64 -105q0 -29 -12.5 -53t-34 -41t-52 -27t-66.5 -10q-62 0 -133 26l2 104h28q11 -53 37.5 -76.5t74.5 -23.5
q35 0 55.5 16t20.5 44q0 20 -15 35t-52 34l-37.5 18.5t-31.5 17.5q-81 45 -81 119q0 57 44 90t121 33q13 0 23.5 -0.5t21.5 -1.5t24 -3t30 -5z" />
    <glyph glyph-name="t" unicode="t" horiz-adv-x="322" 
d="M315 417l-16 -37h-114v-232q0 -55 10.5 -75t39.5 -20q11 0 23 5.5t30 19.5l12 9l15 -23l-103 -78h-10q-20 0 -40.5 5.5t-33.5 14.5t-22 20.5t-14 27.5t-7.5 38t-2.5 53v235h-79v20q54 27 92.5 62.5t67.5 86.5h22v-132h130z" />
    <glyph glyph-name="u" unicode="u" horiz-adv-x="525" 
d="M297 377q82 15 155 45v-311q0 -34 5 -44.5t20 -10.5q5 0 11 1.5t17 6.5v-24l-14 -4l-37.5 -13.5l-28.5 -10.5t-26.5 -11l-32.5 -15q-7 18 -9 27t-6 30l-2 13q-37 -29 -81.5 -47.5t-79.5 -18.5q-29 0 -54.5 12.5t-39.5 32.5q-6 10 -10.5 20.5t-6.5 24.5t-3 33.5t-1 47.5
v127q0 21 -1.5 33.5t-7 19.5t-15 9t-25.5 2h-4v26q15 1 34.5 5t41 10t43.5 13.5t43 16.5v-272q0 -59 16.5 -82.5t57.5 -23.5q42 0 93 39v204q0 21 -1.5 33t-6.5 19t-14.5 9t-25.5 2h-5z" />
    <glyph glyph-name="v" unicode="v" horiz-adv-x="464" 
d="M375 413h14.5t16.5 0.5t21.5 1t29.5 2.5v-24q-17 -2 -27 -4.5t-18 -11t-15.5 -23.5t-17.5 -41l-129 -330h-17l-139 313l-11 26q-8 18 -15 29.5t-15.5 19.5t-19.5 13t-26 9v24q47 -3 69 -3.5t42 -0.5q19 0 41.5 0.5t69.5 3.5v-24q-45 -5 -45 -33q0 -5 2 -13.5t6 -17.5
l83 -196l67 192q7 21 7 32q0 35 -55 36v24q34 -3 50.5 -3.5t30.5 -0.5z" />
    <glyph glyph-name="w" unicode="w" horiz-adv-x="713" 
d="M624 413h14.5t16.5 0.5t21.5 1t29.5 2.5v-24q-17 -2 -27 -4.5t-18 -11t-15.5 -23.5t-17.5 -41l-129 -330h-17l-124 277l-108 -277h-17l-139 313l-11 26q-8 18 -15 29.5t-15.5 19.5t-19.5 13t-26 9v24q47 -3 69 -3.5t42 -0.5q19 0 41.5 0.5t69.5 3.5v-24q-45 -5 -45 -33
q0 -5 2 -13.5t6 -17.5l83 -196l108 284h16l125 -284l67 192q7 21 7 32q0 35 -55 36v24q34 -3 50.5 -3.5t30.5 -0.5z" />
    <glyph glyph-name="x" unicode="x" horiz-adv-x="508" 
d="M398 413q16 0 33 0.5t54 3.5v-24q-18 -2 -30 -4.5t-21.5 -8t-20 -16t-25.5 -27.5l-90 -104l91 -134l15 -23q10 -15 18.5 -24.5t19 -15.5t23 -9t29.5 -4v-23q-26 1 -44.5 2t-32 1.5t-24 0.5h-20.5h-21t-23.5 -0.5t-32 -1.5t-45.5 -2v23q25 2 34 8t9 20t-12 31l-54 80
l-68 -84q-10 -12 -13.5 -18.5t-3.5 -11.5q0 -21 36 -24l16 -1v-23q-39 2 -57 3t-34 1t-34 -1t-57 -3v23q17 0 28.5 2t21 7t19.5 14t23 24l104 120l-79 111q-21 29 -35 46.5t-26 27.5t-23 13.5t-25 4.5v24q25 -2 43 -2.5t31 -1t23 -0.5h20h20t23 0.5t30.5 1t43.5 2.5v-24
q-40 0 -40 -24q0 -9 10 -26l54 -82l62 76q16 20 16 31t-12.5 18t-33.5 7v24q19 -2 32 -2.5t22.5 -1t17 -0.5h15.5z" />
    <glyph glyph-name="y" unicode="y" horiz-adv-x="464" 
d="M375 413h14.5t16.5 0.5t21.5 1t29.5 2.5v-24q-17 -2 -27.5 -5t-18.5 -11.5t-15 -23.5t-17 -40l-120 -310q-16 -42 -31 -75.5t-28 -55.5q-19 -33 -48.5 -51.5t-63.5 -18.5q-32 0 -59 8l-2 115h26q5 -33 19 -47.5t41 -14.5q15 0 27.5 5t23.5 17t21.5 32t23.5 50l15 36
l-130 293l-11 26q-8 18 -15 29.5t-15.5 19.5t-19.5 13t-26 9v24q47 -3 69 -3.5t42 -0.5q19 0 41.5 0.5t69.5 3.5v-24q-45 -5 -45 -33q0 -5 2 -13.5t6 -17.5l83 -196l67 192q7 21 7 32q0 35 -55 36v24q34 -3 50.5 -3.5t30.5 -0.5z" />
    <glyph glyph-name="z" unicode="z" horiz-adv-x="437" 
d="M403 417v-21l-246 -362h58q30 0 51 2t37 6.5t27 12t22 18.5q8 9 13.5 17t9.5 18.5t6.5 24t5.5 32.5h26l-6 -165h-384v19l252 366h-69q-35 0 -58.5 -6t-38.5 -19.5t-23.5 -36.5t-11.5 -57l-31 3l10 148h350z" />
    <glyph glyph-name="braceleft" unicode="{" 
d="M286 363q0 -25 -3 -43t-9.5 -31.5t-18 -24.5t-29.5 -21q34 -21 47 -47.5t13 -74.5v-146q0 -25 3.5 -41t13 -25t26.5 -12.5t43 -3.5h12v-83h-25q-8 -1 -13.5 -1h-10.5q-77 0 -110.5 34t-33.5 112v161q0 42 -12.5 62.5t-43.5 28.5v79q30 7 43 26t13 57v168q0 75 34.5 107.5
t112.5 32.5h9t12 -1h25v-83h-9q-27 0 -44.5 -3.5t-27.5 -12.5t-13.5 -24.5t-3.5 -39.5v-150z" />
    <glyph glyph-name="bar" unicode="|" 
d="M202 750h96v-1000h-96v1000z" />
    <glyph glyph-name="braceright" unicode="}" 
d="M229 123q0 25 3 43t10 31.5t18.5 24t29.5 21.5q-34 20 -47.5 46.5t-13.5 75.5v146q0 25 -3.5 41t-13 25t-26 12.5t-43.5 3.5h-11v83h25q7 0 12.5 0.5t9.5 0.5q78 0 112 -34t34 -112v-161q0 -43 12.5 -63t43.5 -28v-79q-30 -7 -43 -26.5t-13 -56.5v-168
q0 -75 -34.5 -107.5t-112.5 -32.5h-10t-11 1h-25v83h9q27 0 44 3.5t27 12.5t13.5 24.5t3.5 39.5v150z" />
    <glyph glyph-name="asciitilde" unicode="~" horiz-adv-x="667" 
d="M227 641q-25 0 -43 -15t-38 -53l-54 36l7 14q29 60 59.5 85t75.5 25q20 0 45 -6.5t64 -23.5q22 -10 36.5 -15.5t24 -8.5t16.5 -4t16 -1q27 0 45 13t38 48l56 -32q-11 -22 -20 -37.5t-18 -27.5t-19.5 -20.5t-22.5 -15.5q-34 -20 -72 -20q-13 0 -38 6.5t-51 17.5l-52 22
q-15 6 -29.5 9.5t-25.5 3.5z" />
    <glyph glyph-name="exclamdown" unicode="&#xa1;" horiz-adv-x="298" 
d="M131 536q-28 0 -47 21t-19 50t19 49t47 20t48 -21t20 -50t-20 -49t-48 -20zM36 -19q8 27 18.5 80t21.5 116q4 26 7 47.5l6 44.5t5.5 51t5.5 67l2 25l46 57l9 -276l2 -54q2 -52 16 -71t49 -19q8 0 14.5 1t17.5 4v-31z" />
    <glyph glyph-name="cent" unicode="&#xa2;" horiz-adv-x="520" 
d="M291 523q-46 -6 -73 -49t-27 -109q0 -35 7 -67.5t20.5 -59.5t31.5 -48t41 -33v366zM291 622h29v-70q32 -1 60.5 -6t65.5 -17l6 -108l-25 -2q-11 49 -35.5 74.5t-68.5 30.5h-3v-377q7 -1 10.5 -1h8.5q30 0 54.5 15.5t56.5 55.5l6 8l-8 -71l-39 -16.5t-30 -10.5t-27.5 -6.5
t-31.5 -4.5v-71h-29v70q-48 1 -87 17t-66 44t-42 67.5t-15 87.5q0 37 10.5 71t30 61.5t47 47t60.5 29.5q17 5 28.5 7t33.5 4v71z" />
    <glyph glyph-name="sterling" unicode="&#xa3;" horiz-adv-x="520" 
d="M455 545h-33q-8 44 -37.5 68.5t-77.5 24.5q-58 0 -92.5 -35.5t-34.5 -95.5q0 -15 1 -27t4.5 -26.5t10 -33t17.5 -46.5l7 -20h128v-44h-111q12 -32 16 -49t4 -36q0 -36 -15.5 -67t-53.5 -69q34 17 60 24t50 7q22 0 41.5 -6.5t45.5 -21.5q18 -11 29 -17t19 -9.5t14 -4.5
t14 -1q11 0 19.5 3.5t20.5 12.5l16 -28q-21 -16 -36.5 -26.5t-29.5 -16.5t-27 -8.5t-28 -2.5q-36 0 -91 19l-29 10q-49 17 -82 17q-29 0 -58.5 -11t-65.5 -36l-21 38q59 29 84 59.5t25 72.5q0 58 -46 147h-67v44h49q-9 21 -14.5 36t-9 28t-4.5 25.5t-1 28.5q0 43 18 79.5
t49.5 63.5t74 42.5t92.5 15.5q66 0 144 -21z" />
    <glyph glyph-name="fraction" unicode="&#x2044;" horiz-adv-x="80" 
d="M200 667h43l-365 -670h-41z" />
    <glyph glyph-name="yen" unicode="&#xa5;" horiz-adv-x="520" 
d="M205 160h-162v41h162v46h-162v40h150l-99 232l-23.5 52.5t-17.5 33.5t-14.5 19.5t-14.5 10.5q-7 3 -14 4.5t-28 3.5v24q30 -2 50.5 -2.5t35.5 -1t27 -0.5h24h23.5t26.5 0.5t35.5 1t50.5 2.5v-24q-36 -1 -50 -10.5t-14 -33.5q0 -17 10 -45l96 -248l102 244q6 14 10 28
t4 21q0 40 -52 44v24q19 -2 32 -2.5t23 -1t17.5 -0.5h15.5q16 0 33.5 0.5t55.5 3.5v-24q-30 -2 -48.5 -20t-37.5 -62l-118 -274h141v-40h-157v-46h157v-41h-157v-47q0 -27 3 -44t11.5 -27t23 -14.5t37.5 -4.5v-23q-28 1 -47.5 2t-34.5 1.5t-26.5 0.5h-23.5h-23t-26 -0.5
t-34.5 -1.5t-47.5 -2v23q23 0 37.5 4.5t23 14.5t11.5 27t3 44v47z" />
    <glyph glyph-name="florin" unicode="&#x192;" horiz-adv-x="520" 
d="M454 731q21 0 40.5 -2.5t48.5 -8.5l3 -126h-29q-10 109 -81 109q-19 0 -32.5 -7t-24 -23.5t-18.5 -43.5t-15 -68l-26 -150h102l-19 -36h-89l-48 -284q-9 -54 -21 -90.5t-28 -59.5q-54 -77 -168 -77q-14 0 -24.5 0.5t-21 2t-22.5 3.5t-29 6l-4 126h29q2 -51 24.5 -81
t60.5 -30q19 0 32.5 6.5t23.5 23t17.5 43.5t14.5 69l59 342h-106l20 36h93l15 85q7 41 13.5 68.5t14 47t16.5 33t23 27.5q57 59 156 59z" />
    <glyph glyph-name="section" unicode="&#xa7;" horiz-adv-x="425" 
d="M127 390q-17 -20 -22.5 -33t-5.5 -30q0 -27 17.5 -53.5t57.5 -61.5l125 -106q15 17 20.5 29.5t5.5 29.5q0 16 -3 29t-11.5 26t-22.5 27.5t-36 34.5zM230 695q37 0 69 -7t67 -24l-3 -26t-1 -18t1 -18l3 -28q-41 40 -83 63t-77 23q-38 0 -63 -22.5t-25 -55.5q0 -47 56 -94
l131 -111q24 -20 40 -38t26 -35.5t14.5 -36t4.5 -40.5q0 -40 -15 -71.5t-53 -69.5q32 -31 45.5 -60t13.5 -65q0 -35 -13 -64t-36 -49.5t-56 -32t-73 -11.5q-35 0 -72.5 7t-73.5 21q2 23 2.5 33.5t0.5 20.5q0 9 -0.5 19.5t-2.5 33.5q97 -100 172 -100q36 0 58 20.5t22 54.5
q0 24 -16 49t-45 49l-109 88q-26 21 -51 47.5t-36 46.5q-18 30 -18 77q0 38 16 68.5t55 68.5q-57 51 -57 122q0 36 13.5 66.5t37.5 52t57.5 34t73.5 12.5z" />
    <glyph glyph-name="currency" unicode="&#xa4;" horiz-adv-x="667" 
d="M489 367q0 32 -12.5 60.5t-33.5 49.5t-49 33.5t-60 12.5t-60.5 -12.5t-49.5 -33.5t-33.5 -49.5t-12.5 -60.5t12.5 -60.5t33.5 -49.5t49 -33.5t60 -12.5t60.5 12.5t49.5 33.5t33.5 49.5t12.5 60.5zM41 129l98 97q-48 66 -48 141q0 38 11 71t36 69l-98 98l53 53l98 -98
q38 26 71 37t72 11t71 -10.5t69 -36.5l98 97l53 -53l-97 -97q26 -38 37 -70.5t11 -70.5t-10.5 -70t-36.5 -70l98 -98l-52 -53l-98 98q-35 -25 -69.5 -37t-73.5 -12q-37 0 -70.5 11t-72.5 37l-97 -97z" />
    <glyph glyph-name="quotesingle" unicode="'" horiz-adv-x="202" 
d="M136 399h-70l-18 268h106z" />
    <glyph glyph-name="quotedblleft" unicode="&#x201c;" horiz-adv-x="466" 
d="M213 394l-3 20t-1 18q0 46 22 94t62 87q26 26 57.5 51t64.5 45l15 -19l-7 -7q-87 -78 -87 -168q0 -17 3 -31.5t11 -38.5l4 -10zM39 394l-3 20t-1 18q0 46 22.5 94t61.5 87q26 26 58 51t64 45l16 -19l-8 -7q-87 -80 -87 -168q0 -17 3 -31.5t12 -38.5l3 -10z" />
    <glyph glyph-name="guillemotleft" unicode="&#xab;" horiz-adv-x="346" 
d="M155 218l112 147h43l-69 -147l69 -147h-43zM36 218l111 147h43l-68 -147l68 -147h-43z" />
    <glyph glyph-name="guilsinglleft" unicode="&#x2039;" horiz-adv-x="227" 
d="M36 218l112 147h43l-69 -147l69 -147h-43z" />
    <glyph glyph-name="guilsinglright" unicode="&#x203a;" horiz-adv-x="227" 
d="M191 218l-112 -147h-43l69 147l-69 147h43z" />
    <glyph glyph-name="fi" unicode="&#xfb01;" horiz-adv-x="559" 
d="M185 417h115q21 0 40 1t40.5 2.5t47 4.5t57.5 8v-285v-48.5t1 -29.5t2.5 -16.5t3.5 -9.5q12 -20 47 -21v-23q-23 1 -39 2t-27.5 1.5t-21 0.5h-18.5h-19t-21 -0.5t-28 -1.5t-38 -2v23q26 1 38.5 9.5t15.5 26.5q1 9 1.5 27.5t0.5 61.5v184q0 31 -7 39.5t-30 8.5h-161v-232
v-48.5t1 -29.5t2.5 -16.5t3.5 -9.5q6 -11 18 -15.5t37 -5.5v-23q-24 1 -40.5 2t-28.5 1.5t-21.5 0.5h-19.5q-20 0 -42 -1l-69 -3v23q27 2 39.5 10t14.5 26q2 9 2 27.5v61.5v232h-62v37h62l1 55q0 27 1 45.5t3 32t6.5 25t11.5 25.5q26 51 82 81t126 30q48 0 107 -9l17 -2
v-127h-30q-5 59 -28.5 84t-72.5 25q-121 0 -121 -135v-130z" />
    <glyph glyph-name="fl" unicode="&#xfb02;" horiz-adv-x="532" 
d="M185 417h147l-16 -37h-131v-232v-48.5t1 -29.5t2.5 -16.5t3.5 -9.5q6 -11 18 -15.5t37 -5.5v-23q-24 1 -40.5 2t-28.5 1.5t-21.5 0.5h-19.5q-20 0 -42 -1l-69 -3v23q27 2 39.5 10t14.5 26q2 9 2 27.5v61.5v232h-62v37h62l1 48q0 28 0.5 46.5t2.5 32.5t6 26t10 27
q21 52 70.5 83t112.5 31q45 0 111 -18q10 4 17.5 6.5t14 5l13.5 5t18 7.5v-569v-48.5t1 -29.5t2 -16.5t4 -9.5q11 -20 46 -21v-23q-23 1 -38.5 2t-27.5 1.5t-21.5 0.5h-18.5h-18.5t-21.5 -0.5t-28 -1.5t-38 -2v23q26 1 38.5 9.5t15.5 26.5q2 9 2 27.5v61.5v398q0 72 -20 104
t-65 32t-65.5 -32.5t-20.5 -102.5v-130z" />
    <glyph glyph-name="endash" unicode="&#x2013;" 
d="M33 380h434v-88h-434v88z" />
    <glyph glyph-name="dagger" unicode="&#x2020;" horiz-adv-x="439" 
d="M201 436l-169 -23v80l169 -22l-22 196h81l-22 -196l169 22v-80l-170 23l26 -436h-88z" />
    <glyph glyph-name="daggerdbl" unicode="&#x2021;" horiz-adv-x="439" 
d="M201 436l-169 -23v80l169 -22l-22 196h81l-22 -196l169 22v-80l-170 23v-205l170 22v-80l-169 23l22 -196h-81l22 196l-169 -23v80l169 -22v205z" />
    <glyph glyph-name="periodcentered" unicode="&#xb7;" horiz-adv-x="162" 
d="M80 428q35 0 58.5 -23t23.5 -58q0 -34 -23.5 -58t-56.5 -24q-35 0 -58.5 24t-23.5 59q0 34 23 57t57 23z" />
    <glyph glyph-name="paragraph" unicode="&#xb6;" horiz-adv-x="615" 
d="M218 -96v413h-13q-40 0 -73.5 12.5t-57.5 35t-37 54.5t-13 70q0 58 29 101.5t80 60.5q24 8 53.5 12t61.5 4h295v-75h-65v-688h-82v688h-96v-688h-82z" />
    <glyph glyph-name="bullet" unicode="&#x2022;" horiz-adv-x="667" 
d="M196 340q0 29 11 54.5t29.5 44.5t43.5 30t54 11q28 0 53 -11t43.5 -30t29.5 -44.5t11 -54.5t-11 -54.5t-29.5 -44.5t-43.5 -30t-53 -11q-29 0 -54 11t-43.5 30t-29.5 44.5t-11 54.5z" />
    <glyph glyph-name="quotesinglbase" unicode="&#x201a;" horiz-adv-x="293" 
d="M254 129l3 -20t1 -18q0 -46 -22.5 -94t-61.5 -87q-26 -26 -58 -50.5t-64 -45.5l-16 19l8 7q87 78 87 168q0 17 -3 31.5t-12 38.5l-3 11z" />
    <glyph glyph-name="quotedblbase" unicode="&#x201e;" horiz-adv-x="466" 
d="M254 129l3 -20t1 -18q0 -46 -22.5 -94t-61.5 -87q-26 -26 -58 -50.5t-64 -45.5l-16 19l8 7q87 78 87 168q0 17 -3 31.5t-12 38.5l-3 11zM427 129l3 -20t1 -18q0 -46 -22.5 -94t-61.5 -87q-26 -26 -57.5 -50.5t-64.5 -45.5l-15 19l7 7q87 78 87 168q0 17 -3 31.5t-11 38.5
l-4 11z" />
    <glyph glyph-name="quotedblright" unicode="&#x201d;" horiz-adv-x="466" 
d="M254 709l3 -20.5t1 -17.5q0 -46 -22.5 -94t-61.5 -87q-26 -26 -58 -51t-64 -45l-16 19l8 7q87 78 87 168q0 17 -3 31.5t-12 38.5l-3 10zM427 709l3 -20.5t1 -17.5q0 -46 -22.5 -94t-61.5 -87q-26 -26 -57.5 -51t-64.5 -45l-15 19l7 7q87 78 87 168q0 17 -3 31.5t-11 38.5
l-4 10z" />
    <glyph glyph-name="guillemotright" unicode="&#xbb;" horiz-adv-x="346" 
d="M191 218l-112 -147h-43l69 147l-69 147h43zM310 218l-111 -147h-43l68 147l-68 147h43z" />
    <glyph glyph-name="ellipsis" unicode="&#x2026;" horiz-adv-x="622" 
d="M517 129q29 0 49 -19t20 -48t-19.5 -49t-47.5 -20q-29 0 -48.5 20t-19.5 49t19 48t47 19zM310 129q29 0 49 -19t20 -48t-19.5 -49t-47.5 -20q-29 0 -49 20t-20 49t19.5 48t47.5 19zM103 129q29 0 49 -19t20 -48t-20 -49t-47 -20q-29 0 -49 20t-20 49t19 48t48 19z" />
    <glyph glyph-name="perthousand" unicode="&#x2030;" horiz-adv-x="1129" 
d="M1007 193q0 81 -20 124t-56 43q-71 0 -71 -168q0 -171 73 -171q38 0 56 41.5t18 130.5zM648 193q0 81 -19.5 124t-56.5 43q-71 0 -71 -168q0 -171 73 -171q38 0 56 41.5t18 130.5zM269 481q0 81 -19.5 124t-56.5 43q-70 0 -70 -168q0 -171 72 -171q38 0 56 41.5t18 130.5
zM774 192q0 88 43 139t118 51q72 0 114.5 -53.5t42.5 -143.5q0 -88 -42.5 -138t-116.5 -50t-116.5 52t-42.5 143zM415 192q0 88 43 139t118 51q72 0 114.5 -53.5t42.5 -143.5q0 -88 -42.5 -138t-116.5 -50t-116.5 52t-42.5 143zM574 667h42l-422 -670h-42zM37 480
q0 88 42.5 139t117.5 51q73 0 115.5 -53.5t42.5 -143.5q0 -88 -43 -138t-117 -50q-73 0 -115.5 52t-42.5 143z" />
    <glyph glyph-name="questiondown" unicode="&#xbf;" horiz-adv-x="402" 
d="M216 550q-29 0 -48 20t-19 49t19.5 50t47.5 21q27 0 47 -20.5t20 -49.5t-19.5 -49.5t-47.5 -20.5zM342 20q-48 -15 -84 -22t-69 -7q-32 0 -61 10t-51 27.5t-35 40t-13 47.5q0 27 11.5 57t32.5 59l20 26.5l33 43.5q17 22 29 40t22 35t17.5 35l15.5 39l48 37q-4 -23 -9 -43
t-12.5 -40.5t-18 -44t-25.5 -52.5l-26.5 -53t-16.5 -38t-8 -28.5t-2 -24.5q0 -31 20.5 -53t49.5 -22q32 0 69.5 17.5t90.5 58.5z" />
    <glyph glyph-name="grave" unicode="`" horiz-adv-x="527" 
d="M284 647q2 -53 19 -78.5t58 -37.5l-3 -20q-77 10 -118.5 41t-60.5 95h105z" />
    <glyph glyph-name="acute" unicode="&#xb4;" horiz-adv-x="527" 
d="M165 531q42 12 58.5 37.5t18.5 78.5h106q-10 -32 -24.5 -55t-36 -39.5t-51 -26.5t-68.5 -15z" />
    <glyph glyph-name="circumflex" unicode="&#x2c6;" horiz-adv-x="527" 
d="M308 648q7 -41 30.5 -71.5t55.5 -38.5l-3 -22q-41 5 -75 18.5t-52 33.5q-42 -42 -128 -49l-3 19q65 22 91 110h84z" />
    <glyph glyph-name="tilde" unicode="&#x2dc;" horiz-adv-x="527" 
d="M109 532q20 51 43 74.5t55 23.5q13 0 28.5 -3t41.5 -11l28 -8t16 -5q9 -3 17.5 -4t16.5 -1q15 0 25 6.5t20 21.5l18 -3q-14 -48 -34.5 -70.5t-52.5 -22.5q-18 0 -47 8l-37 11t-20 6q-8 2 -15.5 3t-15.5 1h-4q-23 0 -34 -5.5t-29 -25.5z" />
    <glyph glyph-name="macron" unicode="&#xaf;" horiz-adv-x="527" 
d="M373 614v-70h-220v70h220z" />
    <glyph glyph-name="breve" unicode="&#x2d8;" horiz-adv-x="527" 
d="M260 586q46 0 73 12t44 41l20 -3q-14 -54 -50.5 -85.5t-83.5 -31.5t-83 31.5t-50 85.5l19 3q32 -53 111 -53z" />
    <glyph glyph-name="dotaccent" unicode="&#x2d9;" horiz-adv-x="527" 
d="M263 636q23 0 40.5 -17t17.5 -40q0 -24 -17 -41t-41 -17t-41 17t-17 40q0 24 17 41t41 17z" />
    <glyph glyph-name="dieresis" unicode="&#xa8;" horiz-adv-x="527" 
d="M186 636q23 0 40.5 -17t17.5 -40q0 -24 -17.5 -41t-41.5 -17t-41 17t-17 40q0 24 17.5 41t41.5 17zM342 634q24 0 40.5 -17t16.5 -41q0 -23 -17 -40t-40 -17q-24 0 -41 17t-17 40q0 24 17 41t41 17z" />
    <glyph glyph-name="ring" unicode="&#x2da;" horiz-adv-x="527" 
d="M267 518q20 0 32.5 14.5t12.5 37.5q0 29 -14.5 48.5t-37.5 19.5q-20 0 -32.5 -15.5t-12.5 -38.5q0 -29 15 -47.5t37 -18.5zM263 663q36 0 61 -24.5t25 -60.5q0 -17 -6.5 -32.5t-18 -27t-27 -18t-33.5 -6.5q-36 0 -61 24t-25 59q0 36 24.5 61t60.5 25z" />
    <glyph glyph-name="cedilla" unicode="&#xb8;" horiz-adv-x="527" 
d="M292 -44q12 0 19 1.5t20 6.5q-1 -51 -25 -81t-75 -42l-5 12q38 20 38 67q0 12 -3.5 21t-12.5 24q15 -5 23.5 -7t20.5 -2z" />
    <glyph glyph-name="hungarumlaut" unicode="&#x2dd;" horiz-adv-x="527" 
d="M296 511q31 17 43.5 47.5t13.5 88.5h86q-13 -60 -40.5 -92t-78.5 -44h-24zM188 511q31 17 43.5 47.5t13.5 88.5h86q-13 -60 -40.5 -92t-78.5 -44h-24z" />
    <glyph glyph-name="ogonek" unicode="&#x2db;" horiz-adv-x="527" 
d="M270 -88q0 24 13 44.5t44 43.5h33q-14 -22 -20 -37t-6 -32q0 -42 39 -42q18 0 34 5.5t33 18.5l20 -21q-59 -47 -118 -47q-33 0 -52.5 18t-19.5 49z" />
    <glyph glyph-name="caron" unicode="&#x2c7;" horiz-adv-x="527" 
d="M219 516q-7 41 -31 71.5t-55 38.5l3 22q41 -5 74.5 -18.5t52.5 -33.5q42 42 128 49l3 -19q-65 -22 -91 -110h-84z" />
    <glyph glyph-name="emdash" unicode="&#x2014;" horiz-adv-x="666" 
d="M669 270l-22 -87h-650l22 87h650z" />
    <glyph glyph-name="AE" unicode="&#xc6;" horiz-adv-x="904" 
d="M444 360v270l-146 -270h146zM851 667q1 -5 1 -9.5v-6.5q0 -3 0.5 -10t1.5 -18q1 -25 2.5 -44l3.5 -44l2 -27h-30q-5 31 -11.5 47t-20.5 32q-12 13 -26 22.5t-33.5 14.5t-46 7.5t-63.5 2.5h-75v-274h75q37 0 60.5 3.5t37 13.5t18.5 28.5t7 47.5h30q-2 -34 -3 -63.5
t-1 -61.5v-34t1 -40l1 -18h-30q-2 27 -8 44.5t-20 27.5t-37.5 13.5t-60.5 3.5h-70v-208q0 -26 3.5 -42t14 -25t29 -12t47.5 -3q49 0 84 6.5t58.5 22.5t37.5 42.5t22 65.5h32q-2 -11 -2.5 -18t-2.5 -29t-3 -36t-2 -20l-3 -50l-1 -19q-55 1 -96 1t-69 1q-31 0 -51 0.5t-31 0.5
h-123q-32 0 -50 -0.5t-23 -0.5q-10 0 -24 -0.5t-34 -1.5v23q22 0 37 4.5t23 14.5t11.5 27t3.5 44v212h-165l-95 -179q-31 -56 -31 -80q0 -41 53 -42h6.5t8.5 -1v-23h-218v23q17 0 30 4t24.5 12.5t22 23t23.5 37.5l273 477q13 23 13 35q0 30 -56 31h-10v24q29 -2 53 -2.5
t52 -1.5t63.5 -1h88.5q29 0 57.5 0.5t57.5 1.5z" />
    <glyph glyph-name="ordfeminine" unicode="&#xaa;" horiz-adv-x="347" 
d="M208 526l-9 -1q-43 -8 -62.5 -21.5t-19.5 -36.5q0 -17 12.5 -27.5t32.5 -10.5q21 0 46 14v83zM313 330v-33h-266v33h266zM295 436q7 0 20 5v-15l-10 -3q-14 -5 -24.5 -8t-19.5 -6.5l-19 -7.5t-23 -10q-5 12 -6.5 17t-3.5 19q-29 -19 -50 -26.5t-45 -7.5q-32 0 -53 17.5
t-21 43.5q0 65 129 83l28 4l11 2v47q0 34 -13.5 49t-42.5 15q-14 0 -23.5 -10t-9.5 -26q0 -7 2 -13t7 -18l-74 -28q-5 10 -7 16t-2 15q0 16 12.5 31t33.5 26.5t47.5 18.5t55.5 7q39 0 62 -24.5t23 -66.5v-111q0 -21 3 -28t13 -7z" />
    <glyph glyph-name="Oslash" unicode="&#xd8;" horiz-adv-x="812" 
d="M178 365q0 -66 14.5 -125t43.5 -105l321 430q-71 86 -169 86q-49 0 -88 -20t-66 -57t-41.5 -90t-14.5 -119zM257 105q71 -86 167 -86q49 0 88.5 20t67 57t42 90t14.5 120q0 129 -58 229zM429 -17q-119 0 -219 59l-56 -76l-29 20l56 75q-70 49 -106 119.5t-36 156.5
q0 73 27.5 136.5t76 110t115 73t143.5 26.5q113 0 205 -52l52 70l29 -20l-52 -69q67 -50 102 -122.5t35 -159.5q0 -48 -11.5 -93t-33 -84.5t-52 -72t-67.5 -53.5t-82.5 -32.5t-96.5 -11.5z" />
    <glyph glyph-name="OE" unicode="&#x152;" horiz-adv-x="1025" 
d="M565 180v320q0 19 -1.5 32.5t-4.5 24t-8.5 19.5t-14.5 18q-53 57 -140 57q-51 0 -92 -19.5t-69 -56.5t-43 -90t-15 -120q0 -77 19 -140.5t53 -109t81 -71t103 -25.5q72 0 101 26.5t30 92.5zM972 667q1 -5 1 -9.5v-6.5q0 -3 0.5 -10t1.5 -18q1 -25 2.5 -44l3.5 -44l2 -27
h-30q-5 31 -11.5 47t-20.5 32q-12 13 -26 22.5t-33.5 14.5t-46 7.5t-63.5 2.5h-74v-274h74q37 0 60.5 3.5t37 13.5t18.5 28.5t7 47.5h30q-2 -34 -3 -63.5t-1 -61.5q0 -17 0.5 -34t0.5 -40l1 -18h-30q-2 27 -8 44.5t-20 27.5t-37.5 13.5t-60.5 3.5h-69v-208q0 -26 3.5 -42
t13.5 -25t28.5 -12t47.5 -3q49 0 84 6.5t58.5 22.5t37.5 42.5t22 65.5h32q-2 -11 -2.5 -18t-2.5 -29t-3 -36t-2 -20l-3 -50l-1 -19l-165 2l-82 1q-32 0 -57.5 0.5t-42.5 0.5q-18 0 -40 -1t-60 -3q-38 -8 -67.5 -11t-57.5 -3q-81 0 -150.5 26.5t-120.5 73.5t-80 111t-29 139
q0 74 27.5 137t76 109t114.5 72t144 26q17 0 33.5 -1.5t33.5 -3.5l40 -5l21 -3q25 -2 44 -2.5t34.5 -1.5t29 -1h28.5h37t36 1l78 1z" />
    <glyph glyph-name="ordmasculine" unicode="&#xba;" horiz-adv-x="347" 
d="M191 413q57 0 57 71q0 37 -7 68.5t-19 54.5t-29 36t-37 13q-29 0 -44 -19t-15 -54q0 -36 7 -67.5t19.5 -54t30 -35.5t37.5 -13zM318 330v-33h-289v33h289zM170 673q33 0 61.5 -11t49.5 -30t32.5 -45.5t11.5 -57.5q0 -30 -11.5 -54.5t-32 -42.5t-49 -28t-62.5 -10
q-67 0 -107.5 37.5t-40.5 101.5q0 31 11 56.5t30.5 44t46.5 29t60 10.5z" />
    <glyph glyph-name="ae" unicode="&#xe6;" horiz-adv-x="711" 
d="M317 81q-16 25 -23.5 52.5t-9.5 65.5q-71 -12 -104 -35.5t-33 -60.5q0 -26 17.5 -42.5t43.5 -16.5q20 0 44.5 8.5t64.5 28.5zM486 400q-42 0 -65.5 -37.5t-24.5 -105.5h182q-6 143 -92 143zM665 98q4 6 12 15l8 -80q-26 -12 -48 -20t-42.5 -13.5t-40.5 -7.5t-42 -2
q-56 0 -101.5 17.5t-76.5 51.5q-32 -19 -57.5 -32t-48 -21.5t-43 -12t-41.5 -3.5q-51 0 -81.5 25t-30.5 68q0 53 42 83.5t138 47.5l34 5t38 6v15v17t1 36v6q0 45 -22 69.5t-61 24.5q-24 0 -39.5 -11.5t-15.5 -28.5q0 -16 16 -54l-109 -49q-9 18 -12 28.5t-3 21.5q0 52 72 89
q35 18 72 28t69 10q61 0 106 -44q41 24 71 34t65 10q41 0 76 -14t60.5 -39t40 -59t14.5 -74v-13h-287q3 -47 15.5 -85t31.5 -65t44.5 -42t55.5 -15q33 0 59 16.5t61 60.5z" />
    <glyph glyph-name="dotlessi" unicode="&#x131;" horiz-adv-x="259" 
d="M27 373q35 7 74.5 21.5t84.5 38.5v-285v-48.5t0.5 -29.5t2 -16.5t3.5 -9.5q12 -20 47 -21v-23q-23 1 -39 2t-27.5 1.5t-21 0.5h-18.5h-18.5t-21.5 -0.5t-28 -1.5t-38 -2v23q26 1 38.5 9.5t15.5 26.5q1 9 1.5 27.5t0.5 61.5v154q0 31 -6.5 39.5t-29.5 8.5h-12h-8v23z" />
    <glyph glyph-name="oslash" unicode="&#xf8;" horiz-adv-x="511" 
d="M144 284q0 -37 7 -77t20 -78l155 195q-36 76 -98 76q-40 0 -62 -30t-22 -86zM183 98q19 -41 42.5 -59t56.5 -18q39 0 60.5 28t21.5 82q0 35 -7.5 80t-18.5 82zM251 -10q-72 0 -126 35l-41 -52l-22 19l40 50q-66 63 -66 165q0 48 15.5 88.5t44 70t67.5 45.5t86 16
q69 0 128 -37l43 54l22 -19l-41 -53q36 -32 55 -76t19 -95q0 -46 -16.5 -85t-46.5 -67t-71 -43.5t-90 -15.5z" />
    <glyph glyph-name="oe" unicode="&#x153;" horiz-adv-x="757" 
d="M542 400q-42 0 -62 -34.5t-22 -107.5h160v7q0 71 -18 103t-58 32zM362 144q-1 41 -9.5 85.5t-22.5 80.5q-36 90 -102 90q-41 0 -63 -30.5t-22 -86.5q0 -44 9 -89.5t26 -87.5q35 -86 104 -86q80 0 80 117v7zM607 20q31 0 61 22.5t57 65.5l6 -72q-43 -26 -79 -36t-82 -10
q-51 0 -90 14t-71 45q-36 -32 -72.5 -45.5t-86.5 -13.5q-49 0 -88.5 15.5t-67.5 43.5t-43 67.5t-15 88.5q0 50 15.5 91t43.5 70t67.5 45t87.5 16q91 0 154 -57q29 29 62.5 43t76.5 14q57 0 103 -26.5t64 -68.5l8.5 -22.5t5.5 -20t3 -24.5t1 -36h-268q2 -29 5 -49.5t8 -37
t12.5 -30.5t18.5 -29q21 -29 48.5 -46t54.5 -17z" />
    <glyph glyph-name="germandbls" unicode="&#xdf;" horiz-adv-x="568" 
d="M13 417h81v69q0 56 7.5 93t24.5 69q22 41 64 64t94 23q35 0 66.5 -10.5t55.5 -28.5t38 -41.5t14 -49.5q0 -33 -19 -65.5t-53 -57.5l-49 -36q-11 -8 -18 -17.5t-7 -16.5q0 -6 3 -11t11.5 -11t23.5 -14.5t40 -21.5q68 -36 105.5 -84.5t37.5 -99.5q0 -37 -15.5 -69.5
t-42 -57t-61.5 -38.5t-75 -14q-55 0 -112 22v100h27l1 -9q5 -85 80 -85q44 0 72.5 33t28.5 84q0 63 -57 110q-11 8 -25.5 20t-34.5 27q-36 27 -52.5 49.5t-16.5 43.5q0 32 36 65l31 29q36 32 51.5 59t15.5 57q0 23 -8 43.5t-21.5 35.5t-31.5 24t-38 9q-50 0 -70 -36.5
t-20 -125.5v-546q-37 2 -53.5 3t-32.5 1t-32.5 -1t-53.5 -3v23q25 0 39 4.5t21 21t9 49.5t2 90v192h-81v37z" />
    <glyph glyph-name="Adieresis" unicode="&#xc4;" horiz-adv-x="715" 
d="M312 507l-87 -240h187zM254 844q26 0 44 -18t18 -43t-18 -43t-44 -18t-44 17.5t-18 43.5t18 43.5t44 17.5zM448 843q26 0 43.5 -18.5t17.5 -44.5q0 -24 -18 -42t-43 -18q-26 0 -44 17.5t-18 43.5t18 44t44 18zM352 692l236 -549q15 -35 27 -57t25.5 -35t30.5 -19t41 -9
v-23q-30 1 -51.5 2t-37 1.5t-28 0.5h-25.5h-25.5t-28.5 -0.5t-37 -1.5t-51 -2v23h7q56 0 56 43q0 16 -8 33l-55 136h-214l-45 -127l-8 -26t-3 -18q0 -20 14 -29.5t46 -10.5q2 0 4.5 -0.5t7.5 -0.5v-23q-24 1 -41.5 2t-30 1.5t-22.5 0.5h-20h-19.5t-22.5 -0.5t-30 -1.5
t-41 -2v23q22 1 39 6.5t31 17.5t26 32.5t25 51.5z" />
    <glyph glyph-name="Aring" unicode="&#xc5;" horiz-adv-x="715" 
d="M355 740q25 0 42.5 17.5t17.5 42.5q0 26 -17.5 44t-43.5 18q-25 0 -43 -18t-18 -43t18 -43t44 -18zM312 507l-87 -240h187zM353 893q40 0 66.5 -26.5t26.5 -65.5q0 -38 -27 -65t-65 -27q-19 0 -36 7t-29.5 19.5t-19.5 29.5t-7 36t7 36t19.5 29.5t29 19.5t35.5 7zM352 692
l236 -549q15 -35 27 -57t25.5 -35t30.5 -19t41 -9v-23q-30 1 -51.5 2t-37 1.5t-28 0.5h-25.5h-25.5t-28.5 -0.5t-37 -1.5t-51 -2v23h7q56 0 56 43q0 16 -8 33l-55 136h-214l-45 -127l-8 -26t-3 -18q0 -20 14 -29.5t46 -10.5q2 0 4.5 -0.5t7.5 -0.5v-23q-24 1 -41.5 2
t-30 1.5t-22.5 0.5h-20h-19.5t-22.5 -0.5t-30 -1.5t-41 -2v23q22 1 39 6.5t31 17.5t26 32.5t25 51.5z" />
    <glyph glyph-name="Ccedilla" unicode="&#xc7;" horiz-adv-x="727" 
d="M419 -44q11 0 18.5 1.5t20.5 6.5q-1 -51 -25 -81t-75 -42l-5 12q38 21 38 67q0 12 -3.5 21t-12.5 24q15 -5 23.5 -7t20.5 -2zM701 182l4 -96q-77 -54 -148 -78t-152 -24q-82 0 -149.5 25t-115.5 70t-74.5 108t-26.5 140q0 78 28 143.5t78.5 113t120.5 73.5t154 26
q67 0 136 -13t132 -38v-15l-1 -49v-45l1 -41v-21h-23q-6 42 -26 77t-51 60t-72 39t-88 14q-57 0 -104 -21t-80.5 -60t-51.5 -93t-18 -120q0 -72 20 -133.5t55.5 -107t83 -71.5t102.5 -26q139 0 251 163h15z" />
    <glyph glyph-name="Eacute" unicode="&#xc9;" horiz-adv-x="555" 
d="M176 724q23 7 38.5 16.5t25.5 24.5t15 36.5t7 50.5h117q-11 -35 -27.5 -60.5t-40.5 -43.5t-56.5 -29t-75.5 -17zM502 667q1 -5 1 -9.5v-6.5q1 -3 1 -10t1 -18q1 -17 1.5 -31t1.5 -27.5t2.5 -28l3.5 -32.5h-31q-5 31 -11 47t-20 32q-12 13 -26.5 22.5t-34 14.5t-45.5 7.5
t-63 2.5h-75v-270h74q38 0 61.5 3.5t37 13.5t18.5 28.5t6 47.5h30q-2 -34 -3 -63.5t-1 -61.5q0 -17 0.5 -34t1.5 -40v-18h-30q-2 27 -8 44.5t-20 27.5t-37.5 13.5t-60.5 3.5h-69v-208q0 -26 3.5 -42t13.5 -25t28.5 -12t47.5 -3q50 0 85 6.5t58 22.5t37 42.5t22 65.5h32
q-2 -11 -2.5 -18t-2.5 -29t-3 -36t-1 -20l-4 -50l-1 -19l-164 2l-82 1h-124h-9h-28t-26.5 -0.5t-29.5 -1t-38 -1.5v23q23 0 37.5 4.5t23 14.5t11.5 27t3 44v440q0 27 -3 44.5t-11.5 27.5t-23 14t-37.5 4v24q22 -1 38 -2t30 -1.5t26.5 -0.5h26.5h10l118 1h77z" />
    <glyph glyph-name="Ntilde" unicode="&#xd1;" horiz-adv-x="792" 
d="M554 823q-21 -53 -44 -76.5t-55 -23.5q-13 0 -29 3.5t-41 11.5q-17 5 -28.5 8t-16.5 5q-18 5 -33 5q-29 0 -44 -27l-25 10q13 54 33.5 77t55.5 23q27 0 52 -7l58 -17q19 -5 29.5 -7t18.5 -2q14 0 24.5 6t23.5 21zM667 663h18.5t21 0.5t27 1t38.5 2.5v-24h-7
q-23 -2 -37.5 -7t-23 -15t-12 -26.5t-3.5 -41.5v-566h-28l-514 568v-420q0 -32 4 -52.5t13.5 -33.5t27 -18.5t44.5 -7.5v-23q-23 1 -39.5 2t-28.5 1.5t-21.5 0.5h-18.5h-19.5t-21.5 -0.5t-28 -1.5t-39 -2v23q25 3 41 9.5t25.5 19t13 32.5t3.5 51v416v21q0 37 -16.5 53
t-56.5 18h-7v24q37 -3 54.5 -3.5t34.5 -0.5h16t18 0.5t23 1t32 2.5l444 -494v378q0 26 -3.5 43t-12.5 27t-25 15t-42 7v24q22 -2 37.5 -2.5t27.5 -1t21.5 -0.5h18.5z" />
    <glyph glyph-name="Odieresis" unicode="&#xd6;" horiz-adv-x="812" 
d="M636 304v12q-2 75 -21.5 136.5t-52 105.5t-77 68.5t-97.5 24.5q-49 0 -88 -20t-66 -57t-41.5 -90t-14.5 -120q0 -75 18.5 -138.5t51.5 -109t78.5 -71.5t99.5 -26q48 0 87 20t66 57t42 89.5t15 118.5zM309 844q26 0 44 -18t18 -43t-18 -43t-44 -18t-44 17.5t-18 43.5
t18 43.5t44 17.5zM503 843q26 0 43.5 -18.5t17.5 -44.5q0 -24 -18 -42t-43 -18q-26 0 -44 17.5t-18 43.5t18 44t44 18zM403 683q81 0 148.5 -26t116.5 -73t76.5 -111.5t27.5 -141.5t-25 -140.5t-70.5 -110t-108.5 -72t-139 -25.5q-83 0 -154.5 27t-124 74t-82 112t-29.5 140
q0 74 27.5 137.5t76.5 110t115.5 73t144.5 26.5z" />
    <glyph glyph-name="Udieresis" unicode="&#xdc;" horiz-adv-x="761" 
d="M307 844q26 0 44 -18t18 -43t-18 -43t-44 -18t-44 17.5t-18 43.5t18 43.5t44 17.5zM501 843q26 0 43.5 -18.5t17.5 -44.5q0 -24 -18 -42t-43 -18q-26 0 -44 17.5t-18 43.5t18 44t44 18zM744 643q-45 -2 -62 -24t-17 -76v-232q0 -39 -1.5 -67.5t-5.5 -51t-10.5 -41
t-16.5 -36.5q-35 -65 -98 -98t-151 -33q-53 0 -99 13.5t-82 38.5t-61 61t-36 80q-7 26 -9.5 53t-2.5 67v256q0 27 -3.5 44.5t-11.5 27.5t-23 14t-37 4v24q28 -2 47.5 -2.5t34.5 -1t26 -0.5h23h23.5t26 0.5t34.5 1t48 2.5v-24q-23 0 -37.5 -4t-23 -14t-12 -27.5t-3.5 -44.5
v-279q0 -31 1.5 -54t5 -41t9 -32.5t13.5 -29.5q26 -47 72 -72t105 -25q49 0 88 16t66.5 45t42 71t14.5 94v37v253q0 31 -3 50.5t-11.5 31t-23 17t-38.5 7.5l-12 1v24q22 -2 38 -2.5t28 -1t21.5 -0.5h18.5h18.5t21 0.5t27 1t38.5 2.5v-24z" />
    <glyph glyph-name="aacute" unicode="&#xe1;" horiz-adv-x="450" 
d="M275 198l-13 -3q-119 -22 -119 -90q0 -27 18.5 -43.5t47.5 -16.5q16 0 31 5.5t35 16.5v131zM127 531q41 12 58 37.5t19 78.5h106q-10 -32 -24.5 -55t-36 -39.5t-51 -26.5t-68.5 -15zM402 56q6 0 11.5 1.5t16.5 6.5v-24l-13 -4l-37.5 -13.5l-29 -10.5t-27 -11l-32.5 -15
q-7 19 -9 28t-4 29q-42 -29 -73 -41t-65 -12q-23 0 -42.5 7t-34 19.5t-23 29t-8.5 35.5q0 103 187 133l40 7l16 2v73v22q-1 36 -22.5 57.5t-57.5 21.5q-21 0 -35 -15.5t-14 -39.5q0 -11 3 -20.5t11 -28.5l-108 -45q-8 17 -10 26t-2 23q0 25 12 43.5t40 35.5q38 24 80 37.5
t82 13.5q58 0 91 -38t33 -104v-174q0 -34 4.5 -44.5t19.5 -10.5z" />
    <glyph glyph-name="agrave" unicode="&#xe0;" horiz-adv-x="450" 
d="M275 198l-13 -3q-119 -22 -119 -90q0 -27 18.5 -43.5t47.5 -16.5q16 0 31 5.5t35 16.5v131zM246 647q2 -53 19 -78.5t58 -37.5l-3 -20q-78 10 -119 41t-60 95h105zM402 56q6 0 11.5 1.5t16.5 6.5v-24l-13 -4l-37.5 -13.5l-29 -10.5t-27 -11l-32.5 -15q-7 19 -9 28t-4 29
q-42 -29 -73 -41t-65 -12q-23 0 -42.5 7t-34 19.5t-23 29t-8.5 35.5q0 103 187 133l40 7l16 2v73v22q-1 36 -22.5 57.5t-57.5 21.5q-21 0 -35 -15.5t-14 -39.5q0 -11 3 -20.5t11 -28.5l-108 -45q-8 17 -10 26t-2 23q0 25 12 43.5t40 35.5q38 24 80 37.5t82 13.5q58 0 91 -38
t33 -104v-174q0 -34 4.5 -44.5t19.5 -10.5z" />
    <glyph glyph-name="acircumflex" unicode="&#xe2;" horiz-adv-x="450" 
d="M275 198l-13 -3q-119 -22 -119 -90q0 -27 18.5 -43.5t47.5 -16.5q16 0 31 5.5t35 16.5v131zM269 648q8 -41 31.5 -71.5t55.5 -38.5l-3 -22q-41 5 -75 18.5t-52 33.5q-43 -42 -129 -49l-2 19q65 22 90 110h84zM402 56q6 0 11.5 1.5t16.5 6.5v-24l-13 -4l-37.5 -13.5
l-29 -10.5t-27 -11l-32.5 -15q-7 19 -9 28t-4 29q-42 -29 -73 -41t-65 -12q-23 0 -42.5 7t-34 19.5t-23 29t-8.5 35.5q0 103 187 133l40 7l16 2v73v22q-1 36 -22.5 57.5t-57.5 21.5q-21 0 -35 -15.5t-14 -39.5q0 -11 3 -20.5t11 -28.5l-108 -45q-8 17 -10 26t-2 23
q0 25 12 43.5t40 35.5q38 24 80 37.5t82 13.5q58 0 91 -38t33 -104v-174q0 -34 4.5 -44.5t19.5 -10.5z" />
    <glyph glyph-name="adieresis" unicode="&#xe4;" horiz-adv-x="450" 
d="M275 198l-13 -3q-119 -22 -119 -90q0 -27 18.5 -43.5t47.5 -16.5q16 0 31 5.5t35 16.5v131zM147 636q24 0 41.5 -17t17.5 -40q0 -24 -17.5 -41t-41.5 -17t-41 17t-17 40q0 24 17 41t41 17zM304 634q24 0 40.5 -17t16.5 -41q0 -23 -17 -40t-40 -17q-24 0 -41 17t-17 40
q0 24 17 41t41 17zM402 56q6 0 11.5 1.5t16.5 6.5v-24l-13 -4l-37.5 -13.5l-29 -10.5t-27 -11l-32.5 -15q-7 19 -9 28t-4 29q-42 -29 -73 -41t-65 -12q-23 0 -42.5 7t-34 19.5t-23 29t-8.5 35.5q0 103 187 133l40 7l16 2v73v22q-1 36 -22.5 57.5t-57.5 21.5q-21 0 -35 -15.5
t-14 -39.5q0 -11 3 -20.5t11 -28.5l-108 -45q-8 17 -10 26t-2 23q0 25 12 43.5t40 35.5q38 24 80 37.5t82 13.5q58 0 91 -38t33 -104v-174q0 -34 4.5 -44.5t19.5 -10.5z" />
    <glyph glyph-name="atilde" unicode="&#xe3;" horiz-adv-x="450" 
d="M275 198l-13 -3q-119 -22 -119 -90q0 -27 18.5 -43.5t47.5 -16.5q16 0 31 5.5t35 16.5v131zM71 532q20 51 43 74.5t55 23.5q13 0 28.5 -3t41.5 -11l28 -8t16 -5q9 -3 17.5 -4t16.5 -1q15 0 25 6.5t20 21.5l18 -3q-14 -48 -34.5 -70.5t-52.5 -22.5q-18 0 -47 8l-37 11
l-21 6q-8 2 -15.5 3t-15.5 1h-3q-23 0 -34 -5.5t-29 -25.5zM402 56q6 0 11.5 1.5t16.5 6.5v-24l-13 -4l-37.5 -13.5l-29 -10.5t-27 -11l-32.5 -15q-7 19 -9 28t-4 29q-42 -29 -73 -41t-65 -12q-23 0 -42.5 7t-34 19.5t-23 29t-8.5 35.5q0 103 187 133l40 7l16 2v73v22
q-1 36 -22.5 57.5t-57.5 21.5q-21 0 -35 -15.5t-14 -39.5q0 -11 3 -20.5t11 -28.5l-108 -45q-8 17 -10 26t-2 23q0 25 12 43.5t40 35.5q38 24 80 37.5t82 13.5q58 0 91 -38t33 -104v-174q0 -34 4.5 -44.5t19.5 -10.5z" />
    <glyph glyph-name="aring" unicode="&#xe5;" horiz-adv-x="450" 
d="M229 518q20 0 32 14.5t12 37.5q0 29 -14 48.5t-37 19.5q-20 0 -32.5 -15.5t-12.5 -38.5q0 -29 15 -47.5t37 -18.5zM275 198l-13 -3q-119 -22 -119 -90q0 -27 18.5 -43.5t47.5 -16.5q16 0 31 5.5t35 16.5v131zM225 663q35 0 60 -24.5t25 -60.5q0 -17 -6.5 -32.5t-18 -27
t-26.5 -18t-33 -6.5q-36 0 -61 24t-25 59q0 36 24.5 61t60.5 25zM402 56q6 0 11.5 1.5t16.5 6.5v-24l-13 -4l-37.5 -13.5l-29 -10.5t-27 -11l-32.5 -15q-7 19 -9 28t-4 29q-42 -29 -73 -41t-65 -12q-23 0 -42.5 7t-34 19.5t-23 29t-8.5 35.5q0 103 187 133l40 7l16 2v73v22
q-1 36 -22.5 57.5t-57.5 21.5q-21 0 -35 -15.5t-14 -39.5q0 -11 3 -20.5t11 -28.5l-108 -45q-8 17 -10 26t-2 23q0 25 12 43.5t40 35.5q38 24 80 37.5t82 13.5q58 0 91 -38t33 -104v-174q0 -34 4.5 -44.5t19.5 -10.5z" />
    <glyph glyph-name="ccedilla" unicode="&#xe7;" horiz-adv-x="430" 
d="M257 -44q11 0 18.5 1.5t20.5 6.5q-1 -51 -25 -81t-75 -42l-5 12q38 21 38 67q0 12 -3.5 21t-12.5 24q15 -5 23.5 -7t20.5 -2zM268 427q35 0 64.5 -5t67.5 -18l7 -108l-25 -2q-24 106 -120 106q-53 0 -84 -43.5t-31 -115.5q0 -46 11.5 -86t31.5 -70t47 -47t57 -17
t54.5 15.5t56.5 55.5l6 8l-9 -71q-25 -11 -44.5 -18.5t-36.5 -12t-33.5 -6.5t-35.5 -2q-49 0 -88.5 15.5t-68 43.5t-44 68t-15.5 89q0 50 16.5 90.5t47 69.5t73.5 45t95 16z" />
    <glyph glyph-name="eacute" unicode="&#xe9;" horiz-adv-x="448" 
d="M309 259l-1 16q-3 125 -76 125q-43 0 -63 -33.5t-21 -107.5h161zM139 531q41 12 58 37.5t19 78.5h106q-20 -64 -61 -95t-119 -41zM300 21q57 0 115 87l6 -70q-38 -25 -75.5 -36.5t-82.5 -11.5q-51 0 -92.5 16t-71.5 44.5t-46.5 69t-16.5 89.5q0 48 14.5 88t41 69t62.5 45
t79 16q55 0 100 -24.5t65 -65.5q6 -13 10 -23.5t6.5 -22.5t3 -26.5t0.5 -35.5h-268q2 -38 6 -58.5t15 -45.5q19 -48 54 -76t75 -28z" />
    <glyph glyph-name="egrave" unicode="&#xe8;" horiz-adv-x="448" 
d="M309 259l-1 16q-3 125 -76 125q-43 0 -63 -33.5t-21 -107.5h161zM258 647q2 -53 19 -78.5t58 -37.5l-3 -20q-78 10 -119 41t-60 95h105zM300 21q57 0 115 87l6 -70q-38 -25 -75.5 -36.5t-82.5 -11.5q-51 0 -92.5 16t-71.5 44.5t-46.5 69t-16.5 89.5q0 48 14.5 88t41 69
t62.5 45t79 16q55 0 100 -24.5t65 -65.5q6 -13 10 -23.5t6.5 -22.5t3 -26.5t0.5 -35.5h-268q2 -38 6 -58.5t15 -45.5q19 -48 54 -76t75 -28z" />
    <glyph glyph-name="ecircumflex" unicode="&#xea;" horiz-adv-x="448" 
d="M309 259l-1 16q-3 125 -76 125q-43 0 -63 -33.5t-21 -107.5h161zM285 648q7 -41 30.5 -71.5t55.5 -38.5l-3 -22q-41 5 -75 18.5t-52 33.5q-42 -42 -128 -49l-3 19q65 22 91 110h84zM300 21q57 0 115 87l6 -70q-38 -25 -75.5 -36.5t-82.5 -11.5q-51 0 -92.5 16t-71.5 44.5
t-46.5 69t-16.5 89.5q0 48 14.5 88t41 69t62.5 45t79 16q55 0 100 -24.5t65 -65.5q6 -13 10 -23.5t6.5 -22.5t3 -26.5t0.5 -35.5h-268q2 -38 6 -58.5t15 -45.5q19 -48 54 -76t75 -28z" />
    <glyph glyph-name="edieresis" unicode="&#xeb;" horiz-adv-x="448" 
d="M309 259l-1 16q-3 125 -76 125q-43 0 -63 -33.5t-21 -107.5h161zM156 636q23 0 40.5 -17t17.5 -40q0 -24 -17.5 -41t-40.5 -17q-24 0 -41 17t-17 40q0 24 17 41t41 17zM313 634q23 0 40 -17t17 -41q0 -23 -17 -40t-40 -17q-24 0 -41.5 17t-17.5 40q0 24 17.5 41t41.5 17z
M300 21q57 0 115 87l6 -70q-38 -25 -75.5 -36.5t-82.5 -11.5q-51 0 -92.5 16t-71.5 44.5t-46.5 69t-16.5 89.5q0 48 14.5 88t41 69t62.5 45t79 16q55 0 100 -24.5t65 -65.5q6 -13 10 -23.5t6.5 -22.5t3 -26.5t0.5 -35.5h-268q2 -38 6 -58.5t15 -45.5q19 -48 54 -76t75 -28z
" />
    <glyph glyph-name="iacute" unicode="&#xed;" horiz-adv-x="259" 
d="M32 531q41 12 58 37.5t19 78.5h105q-10 -32 -24.5 -55t-36 -39.5t-50.5 -26.5t-68 -15zM27 373q35 7 74.5 21.5t84.5 38.5v-285v-48.5t0.5 -29.5t2 -16.5t3.5 -9.5q12 -20 47 -21v-23q-23 1 -39 2t-27.5 1.5t-21 0.5h-18.5h-18.5t-21.5 -0.5t-28 -1.5t-38 -2v23
q26 1 38.5 9.5t15.5 26.5q1 9 1.5 27.5t0.5 61.5v154q0 31 -6.5 39.5t-29.5 8.5h-12h-8v23z" />
    <glyph glyph-name="igrave" unicode="&#xec;" horiz-adv-x="259" 
d="M144 647q2 -53 19 -78.5t58 -37.5l-3 -20q-78 10 -119 41t-61 95h106zM27 373q35 7 74.5 21.5t84.5 38.5v-285v-48.5t0.5 -29.5t2 -16.5t3.5 -9.5q12 -20 47 -21v-23q-23 1 -39 2t-27.5 1.5t-21 0.5h-18.5h-18.5t-21.5 -0.5t-28 -1.5t-38 -2v23q26 1 38.5 9.5t15.5 26.5
q1 9 1.5 27.5t0.5 61.5v154q0 31 -6.5 39.5t-29.5 8.5h-12h-8v23z" />
    <glyph glyph-name="icircumflex" unicode="&#xee;" horiz-adv-x="259" 
d="M174 648q7 -41 30.5 -71.5t55.5 -38.5l-3 -22q-41 5 -75 18.5t-52 33.5q-42 -42 -128 -49l-3 19q65 22 91 110h84zM27 373q35 7 74.5 21.5t84.5 38.5v-285v-48.5t0.5 -29.5t2 -16.5t3.5 -9.5q12 -20 47 -21v-23q-23 1 -39 2t-27.5 1.5t-21 0.5h-18.5h-18.5t-21.5 -0.5
t-28 -1.5t-38 -2v23q26 1 38.5 9.5t15.5 26.5q1 9 1.5 27.5t0.5 61.5v154q0 31 -6.5 39.5t-29.5 8.5h-12h-8v23z" />
    <glyph glyph-name="idieresis" unicode="&#xef;" horiz-adv-x="259" 
d="M56 633q22 0 38.5 -16t16.5 -38q0 -23 -16.5 -39t-39.5 -16t-39 15.5t-16 38.5t16.5 39t39.5 16zM205 632q23 0 38.5 -16.5t15.5 -39.5q0 -22 -16.5 -38t-38.5 -16q-23 0 -39 16t-16 38q0 23 16.5 39.5t39.5 16.5zM27 373q35 7 74.5 21.5t84.5 38.5v-285v-48.5t0.5 -29.5
t2 -16.5t3.5 -9.5q12 -20 47 -21v-23q-23 1 -39 2t-27.5 1.5t-21 0.5h-18.5h-18.5t-21.5 -0.5t-28 -1.5t-38 -2v23q26 1 38.5 9.5t15.5 26.5q1 9 1.5 27.5t0.5 61.5v154q0 31 -6.5 39.5t-29.5 8.5h-12h-8v23z" />
    <glyph glyph-name="ntilde" unicode="&#xf1;" horiz-adv-x="541" 
d="M116 532q20 51 43 74.5t55 23.5q13 0 28.5 -3t41.5 -11l28 -8t16 -5q9 -3 17.5 -4t16.5 -1q15 0 25 6.5t20 21.5l18 -3q-14 -48 -34.5 -70.5t-51.5 -22.5q-19 0 -48 8l-37 11t-20 6q-8 2 -15.5 3t-15.5 1h-4q-23 0 -34 -5.5t-29 -25.5zM27 373q67 9 163 60v-88
q49 44 86 63t73 19q38 0 67 -19.5t38 -51.5q5 -18 7 -44t2 -68v-96v-48.5t1 -29.5t2.5 -16.5t3.5 -9.5q6 -11 17 -15t34 -6v-23q-23 1 -39.5 2t-28.5 1.5t-21.5 0.5h-18.5h-19.5t-21.5 -0.5t-28.5 -1.5t-39.5 -2v23q27 2 39.5 10t14.5 26q2 9 2 27.5v61.5v119q0 50 -17 71.5
t-59 21.5q-23 0 -43.5 -9.5t-50.5 -33.5v-169v-48.5t0.5 -29.5t2 -16.5t3.5 -9.5q7 -11 18.5 -15.5t36.5 -5.5v-23q-23 1 -39.5 2t-29 1.5t-22 0.5h-19.5h-19.5t-22 -0.5t-29 -1.5t-39.5 -2v23q27 2 39 10t15 26q1 9 1.5 27.5t0.5 61.5v154q0 31 -6.5 39.5t-29.5 8.5h-12
l-12 -1v24z" />
    <glyph glyph-name="oacute" unicode="&#xf3;" horiz-adv-x="511" 
d="M282 21q39 0 60.5 28t21.5 82q0 22 -3 47t-8 50.5t-11.5 49.5t-14.5 43q-16 38 -41 58.5t-57 20.5q-41 0 -63 -30t-22 -84q0 -45 9.5 -93.5t26.5 -89.5q34 -82 102 -82zM157 531q41 12 58 37.5t19 78.5h106q-10 -32 -24.5 -55t-36 -39.5t-51 -26.5t-68.5 -15zM250 427
q48 0 89.5 -17t71.5 -47t47 -71.5t17 -90.5q0 -46 -16.5 -84.5t-46.5 -66.5t-71 -44t-89 -16q-49 0 -89 15.5t-68 44t-43.5 68.5t-15.5 89t15.5 89.5t44 69.5t68 45t86.5 16z" />
    <glyph glyph-name="ograve" unicode="&#xf2;" horiz-adv-x="511" 
d="M282 21q39 0 60.5 28t21.5 82q0 22 -3 47t-8 50.5t-11.5 49.5t-14.5 43q-16 38 -41 58.5t-57 20.5q-41 0 -63 -30t-22 -84q0 -45 9.5 -93.5t26.5 -89.5q34 -82 102 -82zM276 647q2 -53 19 -78.5t58 -37.5l-3 -20q-78 10 -119 41t-60 95h105zM250 427q48 0 89.5 -17
t71.5 -47t47 -71.5t17 -90.5q0 -46 -16.5 -84.5t-46.5 -66.5t-71 -44t-89 -16q-49 0 -89 15.5t-68 44t-43.5 68.5t-15.5 89t15.5 89.5t44 69.5t68 45t86.5 16z" />
    <glyph glyph-name="ocircumflex" unicode="&#xf4;" horiz-adv-x="511" 
d="M282 21q39 0 60.5 28t21.5 82q0 22 -3 47t-8 50.5t-11.5 49.5t-14.5 43q-16 38 -41 58.5t-57 20.5q-41 0 -63 -30t-22 -84q0 -45 9.5 -93.5t26.5 -89.5q34 -82 102 -82zM300 648q7 -41 30.5 -71.5t55.5 -38.5l-3 -22q-41 5 -75 18.5t-52 33.5q-42 -42 -128 -49l-3 19
q65 22 90 110h85zM250 427q48 0 89.5 -17t71.5 -47t47 -71.5t17 -90.5q0 -46 -16.5 -84.5t-46.5 -66.5t-71 -44t-89 -16q-49 0 -89 15.5t-68 44t-43.5 68.5t-15.5 89t15.5 89.5t44 69.5t68 45t86.5 16z" />
    <glyph glyph-name="odieresis" unicode="&#xf6;" horiz-adv-x="511" 
d="M282 21q39 0 60.5 28t21.5 82q0 22 -3 47t-8 50.5t-11.5 49.5t-14.5 43q-16 38 -41 58.5t-57 20.5q-41 0 -63 -30t-22 -84q0 -45 9.5 -93.5t26.5 -89.5q34 -82 102 -82zM177 636q24 0 41.5 -17t17.5 -40q0 -24 -17.5 -41t-41.5 -17t-41 17t-17 40q0 24 17 41t41 17z
M334 634q24 0 40.5 -17t16.5 -41q0 -23 -17 -40t-40 -17q-24 0 -41 17t-17 40q0 24 17 41t41 17zM250 427q48 0 89.5 -17t71.5 -47t47 -71.5t17 -90.5q0 -46 -16.5 -84.5t-46.5 -66.5t-71 -44t-89 -16q-49 0 -89 15.5t-68 44t-43.5 68.5t-15.5 89t15.5 89.5t44 69.5t68 45
t86.5 16z" />
    <glyph glyph-name="otilde" unicode="&#xf5;" horiz-adv-x="511" 
d="M282 21q39 0 60.5 28t21.5 82q0 22 -3 47t-8 50.5t-11.5 49.5t-14.5 43q-16 38 -41 58.5t-57 20.5q-41 0 -63 -30t-22 -84q0 -45 9.5 -93.5t26.5 -89.5q34 -82 102 -82zM101 532q20 51 43 74.5t55 23.5q13 0 28.5 -3t41.5 -11l28 -8t16 -5q9 -3 17.5 -4t16.5 -1
q15 0 25 6.5t20 21.5l18 -3q-14 -48 -34.5 -70.5t-52.5 -22.5q-18 0 -47 8l-37 11l-21 6q-8 2 -15.5 3t-15.5 1h-3q-23 0 -34 -5.5t-29 -25.5zM250 427q48 0 89.5 -17t71.5 -47t47 -71.5t17 -90.5q0 -46 -16.5 -84.5t-46.5 -66.5t-71 -44t-89 -16q-49 0 -89 15.5t-68 44
t-43.5 68.5t-15.5 89t15.5 89.5t44 69.5t68 45t86.5 16z" />
    <glyph glyph-name="uacute" unicode="&#xfa;" horiz-adv-x="525" 
d="M171 531q41 12 58 37.5t19 78.5h106q-20 -64 -61 -95t-119 -41zM297 377q82 15 155 45v-311q0 -34 5 -44.5t20 -10.5q5 0 11 1.5t17 6.5v-24l-14 -4l-37.5 -13.5l-28.5 -10.5t-26.5 -11l-32.5 -15q-7 18 -9 27t-6 30l-2 13q-37 -29 -81.5 -47.5t-79.5 -18.5
q-29 0 -54.5 12.5t-39.5 32.5q-6 10 -10.5 20.5t-6.5 24.5t-3 33.5t-1 47.5v127q0 21 -1.5 33.5t-7 19.5t-15 9t-25.5 2h-4v26q15 1 34.5 5t41 10t43.5 13.5t43 16.5v-272q0 -59 16.5 -82.5t57.5 -23.5q42 0 93 39v204q0 21 -1.5 33t-6.5 19t-14.5 9t-25.5 2h-5z" />
    <glyph glyph-name="ugrave" unicode="&#xf9;" horiz-adv-x="525" 
d="M290 647q2 -53 19 -78.5t58 -37.5l-3 -20q-78 10 -119 41t-60 95h105zM297 377q82 15 155 45v-311q0 -34 5 -44.5t20 -10.5q5 0 11 1.5t17 6.5v-24l-14 -4l-37.5 -13.5l-28.5 -10.5t-26.5 -11l-32.5 -15q-7 18 -9 27t-6 30l-2 13q-37 -29 -81.5 -47.5t-79.5 -18.5
q-29 0 -54.5 12.5t-39.5 32.5q-6 10 -10.5 20.5t-6.5 24.5t-3 33.5t-1 47.5v127q0 21 -1.5 33.5t-7 19.5t-15 9t-25.5 2h-4v26q15 1 34.5 5t41 10t43.5 13.5t43 16.5v-272q0 -59 16.5 -82.5t57.5 -23.5q42 0 93 39v204q0 21 -1.5 33t-6.5 19t-14.5 9t-25.5 2h-5z" />
    <glyph glyph-name="ucircumflex" unicode="&#xfb;" horiz-adv-x="525" 
d="M313 648q8 -41 31.5 -71.5t55.5 -38.5l-3 -22q-41 5 -75 18.5t-52 33.5q-43 -42 -129 -49l-2 19q65 22 90 110h84zM297 377q82 15 155 45v-311q0 -34 5 -44.5t20 -10.5q5 0 11 1.5t17 6.5v-24l-14 -4l-37.5 -13.5l-28.5 -10.5t-26.5 -11l-32.5 -15q-7 18 -9 27t-6 30
l-2 13q-37 -29 -81.5 -47.5t-79.5 -18.5q-29 0 -54.5 12.5t-39.5 32.5q-6 10 -10.5 20.5t-6.5 24.5t-3 33.5t-1 47.5v127q0 21 -1.5 33.5t-7 19.5t-15 9t-25.5 2h-4v26q15 1 34.5 5t41 10t43.5 13.5t43 16.5v-272q0 -59 16.5 -82.5t57.5 -23.5q42 0 93 39v204q0 21 -1.5 33
t-6.5 19t-14.5 9t-25.5 2h-5z" />
    <glyph glyph-name="udieresis" unicode="&#xfc;" horiz-adv-x="525" 
d="M191 636q24 0 41.5 -17t17.5 -40q0 -24 -17.5 -41t-41.5 -17t-41 17t-17 40q0 24 17 41t41 17zM348 634q24 0 40.5 -17t16.5 -41q0 -23 -17 -40t-40 -17q-24 0 -41.5 17t-17.5 40q0 24 17.5 41t41.5 17zM297 377q82 15 155 45v-311q0 -34 5 -44.5t20 -10.5q5 0 11 1.5
t17 6.5v-24l-14 -4l-37.5 -13.5l-28.5 -10.5t-26.5 -11l-32.5 -15q-7 18 -9 27t-6 30l-2 13q-37 -29 -81.5 -47.5t-79.5 -18.5q-29 0 -54.5 12.5t-39.5 32.5q-6 10 -10.5 20.5t-6.5 24.5t-3 33.5t-1 47.5v127q0 21 -1.5 33.5t-7 19.5t-15 9t-25.5 2h-4v26q15 1 34.5 5t41 10
t43.5 13.5t43 16.5v-272q0 -59 16.5 -82.5t57.5 -23.5q42 0 93 39v204q0 21 -1.5 33t-6.5 19t-14.5 9t-25.5 2h-5z" />
    <glyph glyph-name="degree" unicode="&#xb0;" 
d="M250 608q-18 0 -34 -7t-27.5 -18.5t-18.5 -27t-7 -33.5t7 -33.5t18.5 -27t27.5 -18.5t34 -7t34 7t27.5 18.5t18.5 27t7 33.5t-7 33.5t-18.5 27t-27.5 18.5t-34 7zM250 378q-30 0 -57 11.5t-47 31t-31.5 45.5t-11.5 56t11.5 56t31.5 45.5t47 31t57 11.5t57 -11.5t47 -31
t31.5 -45.5t11.5 -56t-11.5 -56t-31.5 -45.5t-47 -31t-57 -11.5z" />
    <glyph glyph-name="registered" unicode="&#xae;" 
d="M221 657v-90h10q27 0 39 9.5t12 30.5q0 50 -53 50h-2h-6zM321 616q0 -39 -43 -53q4 -3 5.5 -5.5l5.5 -9.5l17 -31q9 -18 15 -28t11 -15t10 -6.5t13 -1.5v-7q-7 -1 -11 -1.5t-9 -0.5q-14 0 -23.5 2.5t-18 11t-17.5 23.5t-22 41q-7 14 -13 18t-18 4h-2v-62q0 -16 4.5 -22
t17.5 -6h2v-7l-18 1h-23h-23l-18 -1v7h2q13 0 17.5 6t4.5 22v137q0 17 -5 22t-19 5v8q13 -1 19.5 -1h13.5h18.5t19.5 1q8 1 14 1h11q29 0 45.5 -14t16.5 -38zM250 389q36 0 67.5 13.5t55.5 37.5t37.5 55.5t13.5 67.5t-13.5 68t-37.5 55.5t-55.5 37t-67.5 13.5t-67.5 -13.5
t-55.5 -37.5t-37.5 -55.5t-13.5 -67.5t13.5 -67.5t37.5 -55.5t55.5 -37.5t67.5 -13.5zM250 763q42 0 78.5 -15.5t63.5 -42.5t42.5 -63.5t15.5 -78.5q0 -41 -16 -77.5t-43 -63.5t-63.5 -43t-77.5 -16t-77.5 16t-63.5 43t-43 63.5t-16 77.5q0 42 16 78.5t43 63.5t63.5 42.5
t77.5 15.5z" />
    <glyph glyph-name="copyright" unicode="&#xa9;" horiz-adv-x="752" 
d="M572 243l2 -58q-48 -32 -91 -46.5t-94 -14.5t-92.5 15t-71.5 42t-46 65t-16 85q0 46 17.5 85t48.5 67.5t74 44t95 15.5q42 0 83.5 -8t81.5 -22v-10v-29v-27v-24v-13h-14q-7 50 -47 81t-98 31q-36 0 -65 -12.5t-50 -35.5t-32 -55t-11 -72q0 -43 12.5 -79.5t34 -63.5
t51 -42.5t63.5 -15.5q87 0 155 97h10zM376 22q64 0 120 24.5t98 67t66 99t24 120.5t-24 121t-66 99.5t-98 67t-120 24.5t-120 -24.5t-98 -67t-66 -99.5t-24 -121t24 -120.5t66 -99t98 -67t120 -24.5zM376 683q72 0 136 -27.5t111 -75t74.5 -111.5t27.5 -136t-27.5 -136
t-74.5 -111t-111 -74.5t-136 -27.5t-136 27.5t-111 75t-74.5 111t-27.5 135.5t27.5 136t74.5 111.5t111 75t136 27.5z" />
    <glyph glyph-name="trademark" unicode="&#x2122;" horiz-adv-x="888" 
d="M438 664q11 0 21.5 0.5t32.5 2.5l131 -296l129 296q22 -2 32.5 -2.5t21.5 -0.5t22 0.5t33 2.5v-14q-27 0 -35 -9t-8 -40v-2l7 -251q1 -31 10 -41t35 -10v-13l-47.5 1.5t-31.5 0.5q-15 0 -30.5 -0.5l-47.5 -1.5v13h3q27 0 35.5 10.5t8.5 45.5l-7 260l-143 -337h-16
l-144 321l-2 -239v-6q0 -31 10 -42.5t38 -12.5v-13q-23 1 -35.5 1.5t-24.5 0.5q-13 0 -25.5 -0.5t-35.5 -1.5v13q26 1 35.5 13.5t10.5 47.5l6 241v3q0 29 -8.5 38.5t-34.5 9.5v14q22 -2 32.5 -2.5t21.5 -0.5zM356 667l4 -106h-20q-3 44 -19.5 60t-58.5 16h-43v-286
q0 -31 8.5 -41t34.5 -10v-13l-45.5 1.5t-29.5 0.5t-29.5 -0.5l-45.5 -1.5v13q26 0 34.5 10.5t8.5 40.5v286h-56q-32 0 -46.5 -16.5t-18.5 -60.5h-20l5 107l75 -2q24 0 47.5 -0.5t46.5 -0.5t45.5 0.5t46.5 0.5z" />
    <glyph glyph-name="notequal" unicode="&#x2260;" 
d="M268 454l55 111h76l-53 -111h121v-86h-161l-40 -81h201v-86h-240l-52 -107h-77l52 107h-116v86h155l40 81h-196v86h235z" />
    <glyph glyph-name="infinity" unicode="&#x221e;" horiz-adv-x="667" 
d="M187 268q27 0 50 16.5t49 54.5q-26 38 -49 55t-50 17q-31 0 -51 -20.5t-20 -51.5q0 -30 20.5 -50.5t50.5 -20.5zM479 411q-26 0 -49 -16.5t-49 -54.5q25 -38 48.5 -55t50.5 -17q31 0 51 20.5t20 51.5q0 30 -20.5 50.5t-51.5 20.5zM494 182q-92 0 -158 95
q-72 -94 -162 -94q-35 0 -63.5 11.5t-49 32.5t-32 50t-11.5 64q0 34 11.5 62.5t32.5 49.5t49.5 32.5t62.5 11.5q90 0 157 -94q68 94 162 94q34 0 63 -11.5t49.5 -32.5t32 -50t11.5 -64t-11.5 -63.5t-32 -49.5t-49 -32.5t-62.5 -11.5z" />
    <glyph glyph-name="plusminus" unicode="&#xb1;" 
d="M33 148h434v-88h-434v88zM33 438h169v164h96v-164h169v-88h-169v-164h-96v164h-169v88z" />
    <glyph glyph-name="lessequal" unicode="&#x2264;" 
d="M467 119v-86h-434v86h434zM467 631v-90l-332 -152l331 -151l1 -90l-434 201v81z" />
    <glyph glyph-name="greaterequal" unicode="&#x2265;" 
d="M33 33v86h434v-86h-434zM33 148v90l332 152l-331 151l-1 90l434 -201v-81z" />
    <glyph glyph-name="mu" unicode="&#xb5;" 
d="M39 -170v649h95v-264q0 -151 115 -151q30 0 54.5 14.5t40.5 40.5q13 20 17.5 42.5t4.5 60.5v257h95v-479h-94v74q-23 -46 -50.5 -66t-69.5 -20q-38 0 -64.5 16.5t-48.5 52.5v-227h-95z" />
    <glyph glyph-name="partialdiff" unicode="&#x2202;" 
d="M244 353h-7q-26 -2 -48.5 -13t-39 -30t-25.5 -44t-9 -53q0 -29 10 -53.5t27.5 -43.5t41 -29.5t50.5 -10.5t50 11t40.5 30t27 45t9.5 56q0 60 -35.5 97.5t-91.5 37.5zM247 520q-41 26 -83.5 41.5t-95.5 22.5l12 84q46 -6 84 -14.5t70 -21.5t59 -30t53 -40q62 -56 95 -135
t33 -172q0 -60 -16.5 -108.5t-47 -83.5t-73 -54t-94.5 -19q-47 0 -88 17.5t-72 48.5t-48.5 72t-17.5 88q0 46 16 85.5t44 69t65.5 46.5t81.5 17t74.5 -14t62.5 -49q-14 31 -25.5 53t-24.5 39t-28.5 30t-35.5 27z" />
    <glyph glyph-name="summation" unicode="&#x2211;" horiz-adv-x="667" 
d="M607 750v-235h-86l-10 149h-378l251 -396l-252 -432h389l5 150h90v-236h-591v96l247 423l-247 385v96h582z" />
    <glyph glyph-name="product" unicode="&#x220f;" horiz-adv-x="713" 
d="M38 750h637v-86h-80v-828h80v-86h-259v86h82v828h-283v-828h80v-86h-257v86h81v828h-81v86z" />
    <glyph glyph-name="pi" unicode="&#x3c0;" horiz-adv-x="615" 
d="M107 0v411h-75v86h551v-86h-74v-411h-96v411h-210v-411h-96z" />
    <glyph glyph-name="integral" unicode="&#x222b;" 
d="M148 -249q-23 0 -39.5 2.5t-33.5 7.5l20 85q17 -7 26.5 -9t21.5 -2q32 0 45 18.5t13 66.5v41v560q0 47 1 77t4.5 49t9.5 31t16 24q39 48 115 48q19 0 34.5 -2t43.5 -9l-20 -85q-17 7 -26.5 9t-22.5 2q-18 0 -29.5 -4t-17.5 -16t-8 -35t-2 -60v-58v-513q0 -45 -1 -73.5
t-4 -47t-8 -30.5t-14 -24q-38 -53 -124 -53z" />
    <glyph glyph-name="logicalnot" unicode="&#xac;" 
d="M371 0v181h-338v86h434v-267h-96z" />
    <glyph glyph-name="radical" unicode="&#x221a;" horiz-adv-x="667" 
d="M667 827v-86h-189l-196 -741h-122l-72 288h-88v86h166l30 -110q2 -9 5 -28t6 -40l9 -59l2 -15h8q1 10 2.5 17.5t3 16l3.5 19t5 28.5q7 39 12.5 66l8.5 42q3 14 11.5 47.5l22.5 85.5l100 383h272z" />
    <glyph glyph-name="approxequal" unicode="&#x2248;" 
d="M143 228q-24 0 -42.5 -15.5t-37.5 -51.5l-55 35q30 68 62.5 96.5t80.5 28.5q20 0 45 -7t64 -24l36.5 -14.5t24 -8.5t16.5 -4t16 -1q26 0 44.5 13t38.5 48l56 -33q-11 -22 -20 -37.5t-18 -27t-19.5 -20.5t-22.5 -16q-35 -19 -72 -19q-14 0 -38.5 6.5t-50.5 17.5l-52 21
q-15 6 -30 9.5t-26 3.5zM144 410q-25 0 -43.5 -15.5t-37.5 -52.5l-55 36q30 68 62.5 96t80.5 28q20 0 44.5 -6.5t64.5 -23.5q22 -10 36 -15.5t24 -8.5t17 -4t16 -1q26 0 44 13t39 48l56 -32q-22 -44 -38.5 -65.5t-41.5 -35.5q-34 -20 -72 -20q-14 0 -38.5 6.5t-50.5 17.5
l-52 22q-34 13 -55 13z" />
    <glyph glyph-name="nonbreakingspace" unicode="&#xa0;" horiz-adv-x="333" 
 />
    <glyph glyph-name="Agrave" unicode="&#xc0;" horiz-adv-x="715" 
d="M312 507l-87 -240h187zM380 852q1 -29 6 -50.5t15 -36.5t26 -24.5t39 -16.5l-4 -22q-43 6 -75.5 17t-56.5 29t-40 43.5t-27 60.5h117zM352 692l236 -549q15 -35 27 -57t25.5 -35t30.5 -19t41 -9v-23q-30 1 -51.5 2t-37 1.5t-28 0.5h-25.5h-25.5t-28.5 -0.5t-37 -1.5
t-51 -2v23h7q56 0 56 43q0 16 -8 33l-55 136h-214l-45 -127l-8 -26t-3 -18q0 -20 14 -29.5t46 -10.5q2 0 4.5 -0.5t7.5 -0.5v-23q-24 1 -41.5 2t-30 1.5t-22.5 0.5h-20h-19.5t-22.5 -0.5t-30 -1.5t-41 -2v23q22 1 39 6.5t31 17.5t26 32.5t25 51.5z" />
    <glyph glyph-name="Atilde" unicode="&#xc3;" horiz-adv-x="715" 
d="M312 507l-87 -240h187zM512 823q-21 -53 -44 -76.5t-55 -23.5q-13 0 -28.5 3.5t-41.5 11.5l-28 8t-16 5q-20 5 -34 5q-29 0 -44 -27l-25 10q14 54 34.5 77t55.5 23q25 0 52 -7l57 -17q19 -5 29.5 -7t18.5 -2q14 0 24.5 6t24.5 21zM352 692l236 -549q15 -35 27 -57
t25.5 -35t30.5 -19t41 -9v-23q-30 1 -51.5 2t-37 1.5t-28 0.5h-25.5h-25.5t-28.5 -0.5t-37 -1.5t-51 -2v23h7q56 0 56 43q0 16 -8 33l-55 136h-214l-45 -127l-8 -26t-3 -18q0 -20 14 -29.5t46 -10.5q2 0 4.5 -0.5t7.5 -0.5v-23q-24 1 -41.5 2t-30 1.5t-22.5 0.5h-20h-19.5
t-22.5 -0.5t-30 -1.5t-41 -2v23q22 1 39 6.5t31 17.5t26 32.5t25 51.5z" />
    <glyph glyph-name="Otilde" unicode="&#xd5;" horiz-adv-x="812" 
d="M636 304v12q-2 75 -21.5 136.5t-52 105.5t-77 68.5t-97.5 24.5q-49 0 -88 -20t-66 -57t-41.5 -90t-14.5 -120q0 -75 18.5 -138.5t51.5 -109t78.5 -71.5t99.5 -26q48 0 87 20t66 57t42 89.5t15 118.5zM564 823q-21 -53 -44 -76.5t-55 -23.5q-13 0 -29 3.5t-41 11.5
q-17 5 -28.5 8t-16.5 5q-18 5 -33 5q-29 0 -44 -27l-25 10q13 54 33.5 77t55.5 23q27 0 52 -7l58 -17q19 -5 29.5 -7t18.5 -2q14 0 24.5 6t23.5 21zM403 683q81 0 148.5 -26t116.5 -73t76.5 -111.5t27.5 -141.5t-25 -140.5t-70.5 -110t-108.5 -72t-139 -25.5
q-83 0 -154.5 27t-124 74t-82 112t-29.5 140q0 74 27.5 137.5t76.5 110t115.5 73t144.5 26.5z" />
    <glyph glyph-name="divide" unicode="&#xf7;" 
d="M33 380h434v-88h-434v88zM191 158q0 25 17 42.5t42 17.5t42 -17.5t17 -42.5q0 -24 -17.5 -41.5t-41.5 -17.5q-25 0 -42 17.5t-17 41.5zM191 513q0 25 17 42t42 17t42 -17t17 -42t-17.5 -42t-41.5 -17q-25 0 -42 17t-17 42z" />
    <glyph glyph-name="lozenge" unicode="&#x25ca;" horiz-adv-x="667" 
d="M333 537l-148 -203l148 -204l148 204zM333 693l260 -359l-260 -360l-259 360z" />
    <glyph glyph-name="ydieresis" unicode="&#xff;" horiz-adv-x="464" 
d="M174 636q23 0 40.5 -17t17.5 -40q0 -24 -17.5 -41t-40.5 -17q-24 0 -41 17t-17 40q0 24 17 41t41 17zM331 634q24 0 40.5 -17t16.5 -41q0 -23 -17 -40t-40 -17q-24 0 -41.5 17t-17.5 40q0 24 17.5 41t41.5 17zM375 413h14.5t16.5 0.5t21.5 1t29.5 2.5v-24
q-17 -2 -27.5 -5t-18.5 -11.5t-15 -23.5t-17 -40l-120 -310q-16 -42 -31 -75.5t-28 -55.5q-19 -33 -48.5 -51.5t-63.5 -18.5q-32 0 -59 8l-2 115h26q5 -33 19 -47.5t41 -14.5q15 0 27.5 5t23.5 17t21.5 32t23.5 50l15 36l-130 293l-11 26q-8 18 -15 29.5t-15.5 19.5
t-19.5 13t-26 9v24q47 -3 69 -3.5t42 -0.5q19 0 41.5 0.5t69.5 3.5v-24q-45 -5 -45 -33q0 -5 2 -13.5t6 -17.5l83 -196l67 192q7 21 7 32q0 35 -55 36v24q34 -3 50.5 -3.5t30.5 -0.5z" />
    <glyph glyph-name="Ydieresis" unicode="&#x178;" horiz-adv-x="656" 
d="M251 844q26 0 44.5 -18t18.5 -43t-18.5 -43t-44.5 -18t-44 17.5t-18 43.5t18 43.5t44 17.5zM446 843q26 0 43 -18.5t17 -44.5q0 -24 -18 -42t-43 -18q-26 0 -44 17.5t-18 43.5t18.5 44t44.5 18zM547 663h18t20.5 0.5t26.5 1t37 2.5v-24q-18 -1 -31 -5.5t-24 -13.5
t-21.5 -24.5t-22.5 -39.5l-168 -325v-122q0 -27 3.5 -44t12 -27t23 -14.5t37.5 -4.5v-23q-28 1 -48 2t-34.5 1.5t-26 0.5h-23.5h-23.5t-26 -0.5t-34 -1.5t-47.5 -2v23q22 0 37 4.5t23 14.5t11.5 27t3.5 44v123l-135 283q-20 41 -33 64.5t-26 36t-28.5 17t-40.5 6.5v24
q33 -2 55.5 -2.5t39 -1t29.5 -0.5h26h26t29.5 0.5t39 1t55.5 2.5v-24q-42 -1 -58 -10.5t-16 -33.5q0 -11 3 -23t8 -23l124 -263l124 259q13 26 13 48t-14 33t-46 13v24q22 -2 37 -2.5t26.5 -1t20.5 -0.5h18z" />
    <glyph glyph-name="Acircumflex" unicode="&#xc2;" horiz-adv-x="715" 
d="M312 507l-87 -240h187zM404 848q6 -29 13 -49.5t17.5 -34.5t25.5 -22.5t36 -14.5l-3 -25q-94 13 -141 57q-29 -25 -62 -37t-81 -16l-3 21q22 8 36 15.5t24 19.5t17.5 30.5t16.5 47.5q1 1 1 3t2 5h101zM352 692l236 -549q15 -35 27 -57t25.5 -35t30.5 -19t41 -9v-23
q-30 1 -51.5 2t-37 1.5t-28 0.5h-25.5h-25.5t-28.5 -0.5t-37 -1.5t-51 -2v23h7q56 0 56 43q0 16 -8 33l-55 136h-214l-45 -127l-8 -26t-3 -18q0 -20 14 -29.5t46 -10.5q2 0 4.5 -0.5t7.5 -0.5v-23q-24 1 -41.5 2t-30 1.5t-22.5 0.5h-20h-19.5t-22.5 -0.5t-30 -1.5t-41 -2v23
q22 1 39 6.5t31 17.5t26 32.5t25 51.5z" />
    <glyph glyph-name="Ecircumflex" unicode="&#xca;" horiz-adv-x="555" 
d="M331 848q6 -29 13 -49.5t17.5 -34.5t25 -22.5t35.5 -14.5l-3 -25q-95 14 -141 57q-28 -25 -61 -37t-81 -16l-3 21q22 8 36 15.5t24 19.5t17.5 30.5t16.5 47.5l2 8h102zM502 667q1 -5 1 -9.5v-6.5q1 -3 1 -10t1 -18q1 -17 1.5 -31t1.5 -27.5t2.5 -28l3.5 -32.5h-31
q-5 31 -11 47t-20 32q-12 13 -26.5 22.5t-34 14.5t-45.5 7.5t-63 2.5h-75v-270h74q38 0 61.5 3.5t37 13.5t18.5 28.5t6 47.5h30q-2 -34 -3 -63.5t-1 -61.5q0 -17 0.5 -34t1.5 -40v-18h-30q-2 27 -8 44.5t-20 27.5t-37.5 13.5t-60.5 3.5h-69v-208q0 -26 3.5 -42t13.5 -25
t28.5 -12t47.5 -3q50 0 85 6.5t58 22.5t37 42.5t22 65.5h32q-2 -11 -2.5 -18t-2.5 -29t-3 -36t-1 -20l-4 -50l-1 -19l-164 2l-82 1h-124h-9h-28t-26.5 -0.5t-29.5 -1t-38 -1.5v23q23 0 37.5 4.5t23 14.5t11.5 27t3 44v440q0 27 -3 44.5t-11.5 27.5t-23 14t-37.5 4v24
q22 -1 38 -2t30 -1.5t26.5 -0.5h26.5h10l118 1h77z" />
    <glyph glyph-name="Aacute" unicode="&#xc1;" horiz-adv-x="715" 
d="M312 507l-87 -240h187zM249 724q23 7 39 16.5t26 24.5t15 36.5t6 50.5h117q-11 -35 -27 -60.5t-40 -43.5t-56.5 -29t-75.5 -17zM352 692l236 -549q15 -35 27 -57t25.5 -35t30.5 -19t41 -9v-23q-30 1 -51.5 2t-37 1.5t-28 0.5h-25.5h-25.5t-28.5 -0.5t-37 -1.5t-51 -2v23
h7q56 0 56 43q0 16 -8 33l-55 136h-214l-45 -127l-8 -26t-3 -18q0 -20 14 -29.5t46 -10.5q2 0 4.5 -0.5t7.5 -0.5v-23q-24 1 -41.5 2t-30 1.5t-22.5 0.5h-20h-19.5t-22.5 -0.5t-30 -1.5t-41 -2v23q22 1 39 6.5t31 17.5t26 32.5t25 51.5z" />
    <glyph glyph-name="Edieresis" unicode="&#xcb;" horiz-adv-x="555" 
d="M181 844q25 0 43.5 -18t18.5 -43t-18 -43t-44 -18t-44 17.5t-18 43.5t18 43.5t44 17.5zM375 843q26 0 43.5 -18.5t17.5 -44.5q0 -24 -18 -42t-43 -18q-26 0 -44 17.5t-18 43.5t18 44t44 18zM502 667q1 -5 1 -9.5v-6.5q1 -3 1 -10t1 -18q1 -17 1.5 -31t1.5 -27.5t2.5 -28
l3.5 -32.5h-31q-5 31 -11 47t-20 32q-12 13 -26.5 22.5t-34 14.5t-45.5 7.5t-63 2.5h-75v-270h74q38 0 61.5 3.5t37 13.5t18.5 28.5t6 47.5h30q-2 -34 -3 -63.5t-1 -61.5q0 -17 0.5 -34t1.5 -40v-18h-30q-2 27 -8 44.5t-20 27.5t-37.5 13.5t-60.5 3.5h-69v-208
q0 -26 3.5 -42t13.5 -25t28.5 -12t47.5 -3q50 0 85 6.5t58 22.5t37 42.5t22 65.5h32q-2 -11 -2.5 -18t-2.5 -29t-3 -36t-1 -20l-4 -50l-1 -19l-164 2l-82 1h-124h-9h-28t-26.5 -0.5t-29.5 -1t-38 -1.5v23q23 0 37.5 4.5t23 14.5t11.5 27t3 44v440q0 27 -3 44.5t-11.5 27.5
t-23 14t-37.5 4v24q22 -1 38 -2t30 -1.5t26.5 -0.5h26.5h10l118 1h77z" />
    <glyph glyph-name="Egrave" unicode="&#xc8;" horiz-adv-x="555" 
d="M293 852q1 -29 6 -50.5t15 -36.5t26 -24.5t39 -16.5l-3 -22q-44 6 -76 17t-56 29t-40.5 43.5t-27.5 60.5h117zM502 667q1 -5 1 -9.5v-6.5q1 -3 1 -10t1 -18q1 -17 1.5 -31t1.5 -27.5t2.5 -28l3.5 -32.5h-31q-5 31 -11 47t-20 32q-12 13 -26.5 22.5t-34 14.5t-45.5 7.5
t-63 2.5h-75v-270h74q38 0 61.5 3.5t37 13.5t18.5 28.5t6 47.5h30q-2 -34 -3 -63.5t-1 -61.5q0 -17 0.5 -34t1.5 -40v-18h-30q-2 27 -8 44.5t-20 27.5t-37.5 13.5t-60.5 3.5h-69v-208q0 -26 3.5 -42t13.5 -25t28.5 -12t47.5 -3q50 0 85 6.5t58 22.5t37 42.5t22 65.5h32
q-2 -11 -2.5 -18t-2.5 -29t-3 -36t-1 -20l-4 -50l-1 -19l-164 2l-82 1h-124h-9h-28t-26.5 -0.5t-29.5 -1t-38 -1.5v23q23 0 37.5 4.5t23 14.5t11.5 27t3 44v440q0 27 -3 44.5t-11.5 27.5t-23 14t-37.5 4v24q22 -1 38 -2t30 -1.5t26.5 -0.5h26.5h10l118 1h77z" />
    <glyph glyph-name="Iacute" unicode="&#xcd;" horiz-adv-x="303" 
d="M50 724q23 7 38.5 16.5t25.5 24.5t15 36.5t7 50.5h117q-11 -35 -27.5 -60.5t-40.5 -43.5t-56.5 -29t-75.5 -17zM152 663h23t26 0.5t34.5 1t47.5 2.5v-24q-23 0 -37.5 -4t-23 -14t-11.5 -27.5t-3 -44.5v-440q0 -27 3 -44t11.5 -27t23 -14.5t37.5 -4.5v-23q-28 1 -47.5 2
t-34.5 1.5t-26.5 0.5h-23.5h-23t-26 -0.5t-34.5 -1.5t-47.5 -2v23q23 0 37.5 4.5t23 14.5t11.5 27t3 44v440q0 27 -3 44.5t-11.5 27.5t-23 14t-37.5 4v24q28 -2 47.5 -2.5t34.5 -1t26.5 -0.5h23.5z" />
    <glyph glyph-name="Icircumflex" unicode="&#xce;" horiz-adv-x="303" 
d="M205 848q6 -29 13 -49.5t17.5 -34.5t25 -22.5t35.5 -14.5l-3 -25q-95 14 -141 57q-28 -25 -61 -37t-81 -16l-3 21q22 8 36 15.5t24 19.5t17.5 30.5t16.5 47.5l2 8h102zM152 663h23t26 0.5t34.5 1t47.5 2.5v-24q-23 0 -37.5 -4t-23 -14t-11.5 -27.5t-3 -44.5v-440
q0 -27 3 -44t11.5 -27t23 -14.5t37.5 -4.5v-23q-28 1 -47.5 2t-34.5 1.5t-26.5 0.5h-23.5h-23t-26 -0.5t-34.5 -1.5t-47.5 -2v23q23 0 37.5 4.5t23 14.5t11.5 27t3 44v440q0 27 -3 44.5t-11.5 27.5t-23 14t-37.5 4v24q28 -2 47.5 -2.5t34.5 -1t26.5 -0.5h23.5z" />
    <glyph glyph-name="Idieresis" unicode="&#xcf;" horiz-adv-x="303" 
d="M68 844q26 0 44 -18t18 -43t-18 -43t-44 -18t-44 17.5t-18 43.5t18 43.5t44 17.5zM236 843q26 0 43.5 -18.5t17.5 -44.5q0 -24 -18 -42t-43 -18q-26 0 -44.5 17.5t-18.5 43.5t18.5 44t44.5 18zM152 663h23t26 0.5t34.5 1t47.5 2.5v-24q-23 0 -37.5 -4t-23 -14
t-11.5 -27.5t-3 -44.5v-440q0 -27 3 -44t11.5 -27t23 -14.5t37.5 -4.5v-23q-28 1 -47.5 2t-34.5 1.5t-26.5 0.5h-23.5h-23t-26 -0.5t-34.5 -1.5t-47.5 -2v23q23 0 37.5 4.5t23 14.5t11.5 27t3 44v440q0 27 -3 44.5t-11.5 27.5t-23 14t-37.5 4v24q28 -2 47.5 -2.5t34.5 -1
t26.5 -0.5h23.5z" />
    <glyph glyph-name="Igrave" unicode="&#xcc;" horiz-adv-x="303" 
d="M167 852q1 -29 6 -50.5t15 -36.5t26 -24.5t39 -16.5l-3 -22q-44 6 -76 17t-56 29t-40.5 43.5t-27.5 60.5h117zM152 663h23t26 0.5t34.5 1t47.5 2.5v-24q-23 0 -37.5 -4t-23 -14t-11.5 -27.5t-3 -44.5v-440q0 -27 3 -44t11.5 -27t23 -14.5t37.5 -4.5v-23q-28 1 -47.5 2
t-34.5 1.5t-26.5 0.5h-23.5h-23t-26 -0.5t-34.5 -1.5t-47.5 -2v23q23 0 37.5 4.5t23 14.5t11.5 27t3 44v440q0 27 -3 44.5t-11.5 27.5t-23 14t-37.5 4v24q28 -2 47.5 -2.5t34.5 -1t26.5 -0.5h23.5z" />
    <glyph glyph-name="Oacute" unicode="&#xd3;" horiz-adv-x="812" 
d="M636 304v12q-2 75 -21.5 136.5t-52 105.5t-77 68.5t-97.5 24.5q-49 0 -88 -20t-66 -57t-41.5 -90t-14.5 -120q0 -75 18.5 -138.5t51.5 -109t78.5 -71.5t99.5 -26q48 0 87 20t66 57t42 89.5t15 118.5zM304 724q23 7 39 16.5t26 24.5t15 36.5t6 50.5h117q-11 -35 -27 -60.5
t-40 -43.5t-56.5 -29t-75.5 -17zM403 683q81 0 148.5 -26t116.5 -73t76.5 -111.5t27.5 -141.5t-25 -140.5t-70.5 -110t-108.5 -72t-139 -25.5q-83 0 -154.5 27t-124 74t-82 112t-29.5 140q0 74 27.5 137.5t76.5 110t115.5 73t144.5 26.5z" />
    <glyph glyph-name="Ocircumflex" unicode="&#xd4;" horiz-adv-x="812" 
d="M636 304v12q-2 75 -21.5 136.5t-52 105.5t-77 68.5t-97.5 24.5q-49 0 -88 -20t-66 -57t-41.5 -90t-14.5 -120q0 -75 18.5 -138.5t51.5 -109t78.5 -71.5t99.5 -26q48 0 87 20t66 57t42 89.5t15 118.5zM459 848q6 -29 13 -49.5t17.5 -34.5t25.5 -22.5t36 -14.5l-3 -25
q-94 13 -141 57q-29 -25 -62 -37t-81 -16l-3 21q22 8 36 15.5t24 19.5t17.5 30.5t16.5 47.5q1 1 1 3t2 5h101zM403 683q81 0 148.5 -26t116.5 -73t76.5 -111.5t27.5 -141.5t-25 -140.5t-70.5 -110t-108.5 -72t-139 -25.5q-83 0 -154.5 27t-124 74t-82 112t-29.5 140
q0 74 27.5 137.5t76.5 110t115.5 73t144.5 26.5z" />
    <glyph glyph-name="apple" unicode="&#xf8ff;" horiz-adv-x="667" 
d="M479 528q91 0 144 -71q-44 -34 -62 -66t-18 -74q0 -50 26 -89t73 -59q-38 -94 -82 -145t-87 -51q-21 0 -40 9l-41 17q-10 4 -33 4q-15 0 -30.5 -1.5t-20.5 -3.5l-43 -18q-22 -8 -38 -8q-27 0 -55.5 21t-55.5 61q-40 59 -62 125.5t-22 126.5q0 49 13.5 89.5t38.5 69.5
t59.5 45t75.5 16q18 0 35.5 -4t41.5 -14q33 -12 48 -12q17 0 43 10l33.5 11.5t22 7t17.5 3t19 0.5zM332 518q2 73 40.5 118.5t107.5 54.5v-10q0 -33 -12 -62.5t-32.5 -52t-47 -35.5t-56.5 -13z" />
    <glyph glyph-name="Ograve" unicode="&#xd2;" horiz-adv-x="812" 
d="M636 304v12q-2 75 -21.5 136.5t-52 105.5t-77 68.5t-97.5 24.5q-49 0 -88 -20t-66 -57t-41.5 -90t-14.5 -120q0 -75 18.5 -138.5t51.5 -109t78.5 -71.5t99.5 -26q48 0 87 20t66 57t42 89.5t15 118.5zM422 852q1 -29 6 -50.5t15 -36.5t25.5 -24.5t38.5 -16.5l-3 -22
q-44 6 -76 17t-56 29t-40.5 43.5t-27.5 60.5h118zM403 683q81 0 148.5 -26t116.5 -73t76.5 -111.5t27.5 -141.5t-25 -140.5t-70.5 -110t-108.5 -72t-139 -25.5q-83 0 -154.5 27t-124 74t-82 112t-29.5 140q0 74 27.5 137.5t76.5 110t115.5 73t144.5 26.5z" />
    <glyph glyph-name="Uacute" unicode="&#xda;" horiz-adv-x="761" 
d="M299 724q23 7 38.5 16.5t25.5 24.5t15 36.5t7 50.5h117q-11 -35 -27.5 -60.5t-40.5 -43.5t-56.5 -29t-75.5 -17zM744 643q-45 -2 -62 -24t-17 -76v-232q0 -39 -1.5 -67.5t-5.5 -51t-10.5 -41t-16.5 -36.5q-35 -65 -98 -98t-151 -33q-53 0 -99 13.5t-82 38.5t-61 61
t-36 80q-7 26 -9.5 53t-2.5 67v256q0 27 -3.5 44.5t-11.5 27.5t-23 14t-37 4v24q28 -2 47.5 -2.5t34.5 -1t26 -0.5h23h23.5t26 0.5t34.5 1t48 2.5v-24q-23 0 -37.5 -4t-23 -14t-12 -27.5t-3.5 -44.5v-279q0 -31 1.5 -54t5 -41t9 -32.5t13.5 -29.5q26 -47 72 -72t105 -25
q49 0 88 16t66.5 45t42 71t14.5 94v37v253q0 31 -3 50.5t-11.5 31t-23 17t-38.5 7.5l-12 1v24q22 -2 38 -2.5t28 -1t21.5 -0.5h18.5h18.5t21 0.5t27 1t38.5 2.5v-24z" />
    <glyph glyph-name="Ucircumflex" unicode="&#xdb;" horiz-adv-x="761" 
d="M460 848q6 -29 13 -49.5t17.5 -34.5t25.5 -22.5t36 -14.5l-3 -25q-94 13 -141 57q-28 -25 -61.5 -37t-81.5 -16l-3 21q22 8 36 15.5t24 19.5t17.5 30.5t16.5 47.5q1 1 3 8h101zM744 643q-45 -2 -62 -24t-17 -76v-232q0 -39 -1.5 -67.5t-5.5 -51t-10.5 -41t-16.5 -36.5
q-35 -65 -98 -98t-151 -33q-53 0 -99 13.5t-82 38.5t-61 61t-36 80q-7 26 -9.5 53t-2.5 67v256q0 27 -3.5 44.5t-11.5 27.5t-23 14t-37 4v24q28 -2 47.5 -2.5t34.5 -1t26 -0.5h23h23.5t26 0.5t34.5 1t48 2.5v-24q-23 0 -37.5 -4t-23 -14t-12 -27.5t-3.5 -44.5v-279
q0 -31 1.5 -54t5 -41t9 -32.5t13.5 -29.5q26 -47 72 -72t105 -25q49 0 88 16t66.5 45t42 71t14.5 94v37v253q0 31 -3 50.5t-11.5 31t-23 17t-38.5 7.5l-12 1v24q22 -2 38 -2.5t28 -1t21.5 -0.5h18.5h18.5t21 0.5t27 1t38.5 2.5v-24z" />
    <glyph glyph-name="Ugrave" unicode="&#xd9;" horiz-adv-x="761" 
d="M423 852q1 -29 6 -50.5t15 -36.5t26 -24.5t39 -16.5l-4 -22q-43 6 -75.5 17t-56.5 29t-40 43.5t-27 60.5h117zM744 643q-45 -2 -62 -24t-17 -76v-232q0 -39 -1.5 -67.5t-5.5 -51t-10.5 -41t-16.5 -36.5q-35 -65 -98 -98t-151 -33q-53 0 -99 13.5t-82 38.5t-61 61t-36 80
q-7 26 -9.5 53t-2.5 67v256q0 27 -3.5 44.5t-11.5 27.5t-23 14t-37 4v24q28 -2 47.5 -2.5t34.5 -1t26 -0.5h23h23.5t26 0.5t34.5 1t48 2.5v-24q-23 0 -37.5 -4t-23 -14t-12 -27.5t-3.5 -44.5v-279q0 -31 1.5 -54t5 -41t9 -32.5t13.5 -29.5q26 -47 72 -72t105 -25q49 0 88 16
t66.5 45t42 71t14.5 94v37v253q0 31 -3 50.5t-11.5 31t-23 17t-38.5 7.5l-12 1v24q22 -2 38 -2.5t28 -1t21.5 -0.5h18.5h18.5t21 0.5t27 1t38.5 2.5v-24z" />
    <glyph glyph-name="quotedbl" unicode="&#x22;" horiz-adv-x="362" 
d="M296 399h-70l-18 268h106zM136 399h-70l-18 268h106z" />
    <glyph glyph-name="exclam" unicode="!" horiz-adv-x="298" 
d="M166 130q28 0 47.5 -21t19.5 -50t-19.5 -48.5t-47.5 -19.5t-47.5 20.5t-19.5 49.5t19.5 49t47.5 20zM261 685q-8 -27 -18 -80l-21 -116q-5 -26 -8 -47.5t-5.5 -44.5l-5.5 -50.5t-6 -66.5l-2 -25l-46 -58l-8 276l-3 54q-2 52 -16 71t-49 19q-8 0 -14 -1t-18 -4v32z" />
    <glyph glyph-name="Omega" unicode="&#x3a9;" horiz-adv-x="666" 
d="M28 0v86h162q-45 27 -72.5 53t-47.5 61t-31 76.5t-11 88.5q0 67 23.5 125.5t64.5 101t96.5 67t120.5 24.5t120.5 -24t96.5 -67t64.5 -101t23.5 -126q0 -94 -38.5 -161t-122.5 -118h161v-86h-264v77q43 25 68.5 47t46.5 54q50 76 50 175q0 51 -16 95.5t-43.5 77.5t-65 52
t-80.5 19q-44 0 -82 -18.5t-65.5 -51.5t-43 -77.5t-15.5 -96.5q0 -184 165 -276v-77h-265z" />
    <glyph glyph-name="Delta" unicode="&#x394;" horiz-adv-x="667" 
d="M160 87h345l-173 463zM23 0l257 667h103l261 -667h-621z" />
    </font>
</defs>
</svg>
